<svg width="22" height="22" viewBox="0 0 22 22" fill="none" xmlns="http://www.w3.org/2000/svg">
<path fill-rule="evenodd" clip-rule="evenodd" d="M10.9983 2.89148C6.22745 2.89148 2.35547 5.89919 2.35547 9.59834C2.35547 11.906 3.85068 13.9198 6.13238 15.1471L5.17303 18.6647C5.15493 18.7347 5.15865 18.8085 5.18371 18.8763C5.20876 18.9441 5.25394 19.0026 5.31319 19.044C5.37244 19.0853 5.44293 19.1076 5.5152 19.1078C5.58747 19.108 5.65807 19.0861 5.71753 19.045L9.91794 16.2533C10.2723 16.2533 10.6353 16.3138 10.9983 16.3138C15.7691 16.3138 19.6411 13.3061 19.6411 9.59834C19.6411 5.89055 15.7691 2.89148 10.9983 2.89148Z" fill="black"/>
</svg>
