<svg width="22" height="22" viewBox="0 0 22 22" fill="none" xmlns="http://www.w3.org/2000/svg">
<path d="M20.3532 6.30425C20.1286 5.46467 19.4648 4.80082 18.6252 4.57628C17.1023 4.16626 11.0007 4.16626 11.0007 4.16626C11.0007 4.16626 4.8992 4.16626 3.37626 4.57628C2.53669 4.80082 1.87284 5.46467 1.6483 6.30425C1.23828 7.8272 1.23828 11 1.23828 11C1.23828 11 1.23828 14.1728 1.6483 15.6958C1.87284 16.5353 2.53669 17.1992 3.37626 17.4237C4.8992 17.8338 11.0007 17.8338 11.0007 17.8338C11.0007 17.8338 17.1023 17.8338 18.6252 17.4237C19.4648 17.1992 20.1286 16.5353 20.3532 15.6958C20.7632 14.1728 20.7632 11 20.7632 11C20.7632 11 20.7632 7.8272 20.3532 6.30425Z" fill="#FF0000"/>
<path d="M9.05078 13.9288V8.07129L14.1273 11L9.05078 13.9288Z" fill="white"/>
</svg>
