<svg width="22" height="22" viewBox="0 0 22 22" fill="none" xmlns="http://www.w3.org/2000/svg">
<path d="M10.999 3C14.6138 3.00025 17.5439 6.0017 17.5439 9.7041C17.5439 12.2681 15.9149 14.5893 14.4297 16.1924C13.6715 17.0107 12.915 17.6799 12.3496 18.1436C12.0384 18.3987 11.7217 18.6496 11.3916 18.8789C11.1575 19.0407 10.8384 19.04 10.6045 18.8779C10.2749 18.6488 9.95825 18.3984 9.64746 18.1436C9.0821 17.6799 8.32556 17.0107 7.56738 16.1924C6.08223 14.5893 4.45314 12.2681 4.45312 9.7041C4.45312 6.00155 7.38407 3 10.999 3ZM11 8C9.89543 8 9 8.89543 9 10C9 11.1046 9.89543 12 11 12C12.1046 12 13 11.1046 13 10C13 8.89543 12.1046 8 11 8Z" fill="#FF932F"/>
</svg>
