<svg width="22" height="22" viewBox="0 0 22 22" fill="none" xmlns="http://www.w3.org/2000/svg">
<path fill-rule="evenodd" clip-rule="evenodd" d="M19.712 11.2068C19.712 10.5635 19.6545 9.94437 19.5466 9.35046H11V12.8605H15.8843C15.6736 13.9948 15.0343 14.9568 14.0734 15.6001V17.8769H17.0056C18.7218 16.2969 19.712 13.9706 19.712 11.2068Z" fill="#3D82F0"/>
<path fill-rule="evenodd" clip-rule="evenodd" d="M11.0006 20.0754C13.4509 20.0754 15.5048 19.2626 17.0062 17.8772L14.074 15.5994C13.2613 16.1439 12.2217 16.4655 11.0006 16.4655C8.63709 16.4655 6.63657 14.8693 5.92267 12.7246H2.89062V15.076C4.38396 18.0416 7.45332 20.0754 11.0006 20.0754Z" fill="#31A752"/>
<path fill-rule="evenodd" clip-rule="evenodd" d="M5.9228 12.7246C5.7413 12.1801 5.63845 11.5983 5.63845 11.0004C5.63845 10.4024 5.7413 9.82062 5.9228 9.27612V6.92468H2.89075C2.27668 8.14981 1.92578 9.53627 1.92578 11.0004C1.92578 12.4645 2.27668 13.8509 2.89075 15.076L5.9228 12.7246Z" fill="#F9BA00"/>
<path fill-rule="evenodd" clip-rule="evenodd" d="M11.0006 5.53488C12.3326 5.53488 13.5295 5.99267 14.4693 6.8921L17.0728 4.28959C15.5008 2.82448 13.4468 1.92505 11.0006 1.92505C7.45332 1.92505 4.38396 3.95886 2.89062 6.92537L5.92267 9.2758C6.63657 7.13107 8.63709 5.53488 11.0006 5.53488Z" fill="#E64234"/>
</svg>
