<svg width="44" height="45" viewBox="0 0 44 45" fill="none" xmlns="http://www.w3.org/2000/svg">
<g filter="url(#filter0_d_2013_40739)">
<circle cx="22" cy="21" r="15" fill="white"/>
<path d="M22.3564 14.0668C26.0243 14.2529 28.9414 17.2863 28.9414 21.0004L28.9316 21.3578C28.7455 25.0255 25.713 27.9426 21.999 27.9427L21.6416 27.933C18.092 27.7531 15.2456 24.9073 15.0654 21.3578L15.0566 21.0004C15.0566 17.1663 18.165 14.058 21.999 14.058L22.3564 14.0668ZM22.6816 17.7152C22.6816 18.0917 22.3765 18.3968 22 18.3968C21.6235 18.3968 21.3184 18.0917 21.3184 17.7152V15.4017C18.7481 15.711 16.7115 17.7478 16.4014 20.3177H18.7139C19.0902 20.318 19.3955 20.6239 19.3955 21.0004C19.3953 21.3766 19.0901 21.6818 18.7139 21.682H16.4014C16.7112 24.2523 18.7479 26.2887 21.3184 26.598V24.2855C21.3184 23.9089 21.6234 23.6039 22 23.6039C22.3766 23.6039 22.6816 23.9089 22.6816 24.2855V26.598C25.2511 26.2878 27.2869 24.2516 27.5967 21.682H25.2842C24.9077 21.682 24.6027 21.3767 24.6025 21.0004C24.6025 20.6238 24.9076 20.3177 25.2842 20.3177H27.5967C27.2866 17.7485 25.2509 15.7118 22.6816 15.4017V17.7152ZM22 20.3177C22.3766 20.3177 22.6816 20.6238 22.6816 21.0004C22.6815 21.3767 22.3764 21.682 22 21.682C21.6236 21.682 21.3185 21.3767 21.3184 21.0004C21.3184 20.6238 21.6234 20.3177 22 20.3177Z" fill="#FF932F"/>
</g>
<defs>
<filter id="filter0_d_2013_40739" x="0.181818" y="0.545454" width="43.6364" height="43.6364" filterUnits="userSpaceOnUse" color-interpolation-filters="sRGB">
<feFlood flood-opacity="0" result="BackgroundImageFix"/>
<feColorMatrix in="SourceAlpha" type="matrix" values="0 0 0 0 0 0 0 0 0 0 0 0 0 0 0 0 0 0 127 0" result="hardAlpha"/>
<feOffset dy="1.36364"/>
<feGaussianBlur stdDeviation="3.40909"/>
<feComposite in2="hardAlpha" operator="out"/>
<feColorMatrix type="matrix" values="0 0 0 0 0.596154 0 0 0 0 0.289044 0 0 0 0 0 0 0 0 0.15 0"/>
<feBlend mode="normal" in2="BackgroundImageFix" result="effect1_dropShadow_2013_40739"/>
<feBlend mode="normal" in="SourceGraphic" in2="effect1_dropShadow_2013_40739" result="shape"/>
</filter>
</defs>
</svg>
