<svg width="22" height="22" viewBox="0 0 22 22" fill="none" xmlns="http://www.w3.org/2000/svg">
<path d="M16.9539 3.73999H5.04757C3.32333 3.73999 1.92578 5.13754 1.92578 6.86179V14.2488C1.92578 15.9731 3.32333 17.3706 5.04757 17.3706H9.25835L10.6922 19.8481C10.8192 20.075 11.155 20.075 11.2821 19.8481L12.7159 17.3706H16.9539C18.6782 17.3706 20.0757 15.9731 20.0757 14.2488V6.86179C20.0757 5.13754 18.6782 3.73999 16.9539 3.73999Z" fill="#00C73C"/>
<path fill-rule="evenodd" clip-rule="evenodd" d="M5.2286 12.225C5.48269 12.47 5.80032 12.6152 6.14517 12.6152C7.08896 12.6152 7.86034 11.8257 7.86034 10.8365C7.86034 9.84736 7.08896 9.04877 6.14517 9.04877C5.79124 9.04877 5.48269 9.19396 5.2286 9.43899V8.00514H4.20312V12.5245H5.2286V12.225ZM8.48651 12.5245H9.52105V9.54789C9.52105 8.39536 8.62263 7.94162 7.93294 7.89624V8.81282C8.21426 8.82189 8.48651 9.05784 8.48651 9.55697V12.5245ZM10.1019 10.8275C10.1019 11.8166 10.9004 12.6152 11.8896 12.6152C12.8788 12.6152 13.6774 11.8166 13.6774 10.8275C13.6774 9.83829 12.8788 9.03969 11.8896 9.03969C10.9004 9.03969 10.1019 9.83829 10.1019 10.8275ZM16.0097 13.9765C16.7357 13.9493 17.7883 13.6498 17.7883 12.2704V9.15767H16.7992V9.46622C16.5451 9.21212 16.2184 9.05784 15.8554 9.05784C14.9116 9.05784 14.1402 9.82922 14.1402 10.773C14.1402 11.7168 14.9116 12.4882 15.8554 12.4882C16.2184 12.4882 16.5451 12.3339 16.7992 12.0798V12.1433C16.8083 12.7151 16.6631 13.0327 16.0097 13.069V13.9765ZM15.9825 11.6079C16.4634 11.6079 16.8537 11.2267 16.8537 10.7639C16.8537 10.3011 16.4634 9.91995 15.9825 9.91995C15.5015 9.91995 15.1113 10.3011 15.1113 10.7639C15.1113 11.2267 15.5015 11.6079 15.9825 11.6079ZM6.02723 11.7168C6.51728 11.7168 6.9075 11.3175 6.9075 10.8365C6.9075 10.3465 6.51728 9.95625 6.02723 9.95625C5.53718 9.95625 5.14696 10.3465 5.14696 10.8365C5.14696 11.3266 5.53718 11.7168 6.02723 11.7168ZM11.8897 11.6805C12.3525 11.6805 12.7336 11.2993 12.7336 10.8365C12.7336 10.3737 12.3525 9.99255 11.8897 9.99255C11.4268 9.99255 11.0457 10.3737 11.0457 10.8365C11.0457 11.2993 11.4268 11.6805 11.8897 11.6805Z" fill="white"/>
</svg>
