<svg width="20" height="20" viewBox="0 0 20 20" fill="none" xmlns="http://www.w3.org/2000/svg">
<mask id="path-1-inside-1_890_27473" fill="white">
<path fill-rule="evenodd" clip-rule="evenodd" d="M12.2485 4.58361C12.0449 4.5899 11.8518 4.67518 11.71 4.82141C11.5682 4.96763 11.4889 5.1633 11.4889 5.36697C11.4889 5.57064 11.5682 5.76631 11.71 5.91254C11.8518 6.05876 12.0449 6.14405 12.2485 6.15033C12.6814 6.15033 13.0322 5.79877 13.0322 5.3666C13.032 5.15887 12.9493 4.95972 12.8024 4.8129C12.6554 4.66608 12.4562 4.58361 12.2485 4.58361ZM12.2485 7.64315C11.645 7.64236 11.0665 7.40224 10.6398 6.97545C10.2132 6.54866 9.97325 5.97007 9.97266 5.3666C9.97345 4.76313 10.2136 4.18462 10.6404 3.75797C11.0671 3.33132 11.6457 3.09138 12.2492 3.09079C12.8527 3.09138 13.4313 3.33132 13.8581 3.75797C14.2848 4.18462 14.525 4.76313 14.5258 5.3666C14.5252 5.9702 14.2851 6.5489 13.8583 6.97571C13.4315 7.40252 12.8521 7.64256 12.2485 7.64315Z"/>
</mask>
<path d="M12.2485 4.58361L12.2485 2.53098H12.2168L12.1851 2.53196L12.2485 4.58361ZM11.4889 5.36697H9.43628H11.4889ZM12.2485 6.15033L12.1851 8.20198L12.2168 8.20296H12.2485V6.15033ZM13.0322 5.3666H15.0848L15.0848 5.36464L13.0322 5.3666ZM12.2485 7.64315L12.2458 9.69579L12.2505 9.69579L12.2485 7.64315ZM9.97266 5.3666L7.92002 5.36391L7.92003 5.36861L9.97266 5.3666ZM12.2492 3.09079L12.2512 1.03816L12.2472 1.03816L12.2492 3.09079ZM14.5258 5.3666L16.5784 5.36861L16.5784 5.36391L14.5258 5.3666ZM12.2485 4.58361L12.1851 2.53196C11.4484 2.5547 10.7494 2.86336 10.2363 3.39255L11.71 4.82141L13.1836 6.25027C12.9541 6.48701 12.6414 6.62509 12.3118 6.63527L12.2485 4.58361ZM11.71 4.82141L10.2363 3.39255C9.72323 3.92173 9.43628 4.62987 9.43628 5.36697H11.4889H13.5415C13.5415 5.69673 13.4132 6.01353 13.1836 6.25027L11.71 4.82141ZM11.4889 5.36697H9.43628C9.43628 6.10407 9.72323 6.81222 10.2363 7.3414L11.71 5.91254L13.1836 4.48368C13.4132 4.72041 13.5415 5.03721 13.5415 5.36697H11.4889ZM11.71 5.91254L10.2363 7.3414C10.7494 7.87058 11.4484 8.17924 12.1851 8.20198L12.2485 6.15033L12.3118 4.09868C12.6414 4.10885 12.9541 4.24694 13.1836 4.48368L11.71 5.91254ZM12.2485 6.15033V8.20296C13.8163 8.20296 15.0848 6.93113 15.0848 5.3666H13.0322H10.9796C10.9796 4.66641 11.5465 4.0977 12.2485 4.0977V6.15033ZM13.0322 5.3666L15.0848 5.36464C15.0841 4.61286 14.785 3.89211 14.2531 3.36078L12.8024 4.8129L11.3516 6.26502C11.1137 6.02732 10.9799 5.70488 10.9796 5.36855L13.0322 5.3666ZM12.8024 4.8129L14.2531 3.36078C13.7213 2.82944 13.0002 2.53098 12.2485 2.53098L12.2485 4.58361L12.2485 6.63624C11.9121 6.63624 11.5896 6.50272 11.3516 6.26502L12.8024 4.8129ZM12.2485 7.64315L12.2512 5.59052C12.1913 5.59045 12.1338 5.56661 12.0915 5.52426L10.6398 6.97545L9.18817 8.42664C9.99912 9.23786 11.0987 9.69428 12.2458 9.69578L12.2485 7.64315ZM10.6398 6.97545L12.0915 5.52426C12.0492 5.4819 12.0253 5.42448 12.0253 5.36458L9.97266 5.3666L7.92003 5.36861C7.92115 6.51566 8.37721 7.61542 9.18817 8.42664L10.6398 6.97545ZM9.97266 5.3666L12.0253 5.36929C12.0254 5.30939 12.0492 5.25198 12.0916 5.20964L10.6404 3.75797L9.18917 2.3063C8.37795 3.11725 7.92153 4.21687 7.92003 5.36391L9.97266 5.3666ZM10.6404 3.75797L12.0916 5.20964C12.1339 5.16729 12.1913 5.14348 12.2512 5.14342L12.2492 3.09079L12.2472 1.03816C11.1001 1.03929 10.0004 1.49535 9.18917 2.3063L10.6404 3.75797ZM12.2492 3.09079L12.2472 5.14342C12.3071 5.14348 12.3645 5.16729 12.4069 5.20964L13.8581 3.75797L15.3093 2.3063C14.498 1.49535 13.3983 1.03929 12.2512 1.03816L12.2492 3.09079ZM13.8581 3.75797L12.4069 5.20964C12.4492 5.25198 12.4731 5.30939 12.4731 5.36929L14.5258 5.3666L16.5784 5.36391C16.5769 4.21687 16.1205 3.11725 15.3093 2.3063L13.8581 3.75797ZM14.5258 5.3666L12.4731 5.36458C12.4731 5.42449 12.4493 5.48192 12.4069 5.52428L13.8583 6.97571L15.3098 8.42714C16.121 7.61588 16.5773 6.5159 16.5784 5.36861L14.5258 5.3666ZM13.8583 6.97571L12.4069 5.52428C12.365 5.56614 12.3071 5.59046 12.2464 5.59052L12.2485 7.64315L12.2505 9.69579C13.3971 9.69466 14.498 9.2389 15.3098 8.42714L13.8583 6.97571Z" fill="white" mask="url(#path-1-inside-1_890_27473)"/>
<mask id="path-3-inside-2_890_27473" fill="white">
<path fill-rule="evenodd" clip-rule="evenodd" d="M16.5253 6.11376H13.7785C13.5805 6.11376 13.3906 6.03512 13.2507 5.89515C13.1107 5.75517 13.032 5.56531 13.032 5.36735C13.032 5.16939 13.1107 4.97954 13.2507 4.83956C13.3906 4.69958 13.5805 4.62094 13.7785 4.62094H16.5253C16.7232 4.62094 16.9131 4.69958 17.053 4.83956C17.193 4.97954 17.2717 5.16939 17.2717 5.36735C17.2717 5.56531 17.193 5.75517 17.053 5.89515C16.9131 6.03512 16.7232 6.11376 16.5253 6.11376ZM10.7197 6.11376H3.83626C3.63829 6.11376 3.44844 6.03512 3.30846 5.89515C3.16848 5.75517 3.08984 5.56531 3.08984 5.36735C3.08984 5.16939 3.16848 4.97954 3.30846 4.83956C3.44844 4.69958 3.63829 4.62094 3.83626 4.62094H10.7197C10.9176 4.62094 11.1075 4.69958 11.2475 4.83956C11.3874 4.97954 11.4661 5.16939 11.4661 5.36735C11.4661 5.56531 11.3874 5.75517 11.2475 5.89515C11.1075 6.03512 10.9176 6.11376 10.7197 6.11376ZM16.5253 10.9281H3.83626C3.63829 10.9281 3.44844 10.8495 3.30846 10.7095C3.16848 10.5695 3.08984 10.3797 3.08984 10.1817C3.08984 9.98375 3.16848 9.79389 3.30846 9.65391C3.44844 9.51393 3.63829 9.4353 3.83626 9.4353H16.5253C16.7232 9.4353 16.9131 9.51393 17.053 9.65391C17.193 9.79389 17.2717 9.98375 17.2717 10.1817C17.2717 10.3797 17.193 10.5695 17.053 10.7095C16.9131 10.8495 16.7232 10.9281 16.5253 10.9281ZM6.58305 15.7425H3.83626C3.63829 15.7425 3.44844 15.6638 3.30846 15.5239C3.16848 15.3839 3.08984 15.194 3.08984 14.9961C3.08984 14.7981 3.16848 14.6082 3.30846 14.4683C3.44844 14.3283 3.63829 14.2497 3.83626 14.2497H6.58305C6.78101 14.2497 6.97086 14.3283 7.11084 14.4683C7.25082 14.6082 7.32946 14.7981 7.32946 14.9961C7.32946 15.194 7.25082 15.3839 7.11084 15.5239C6.97086 15.6638 6.78101 15.7425 6.58305 15.7425ZM16.5253 15.7425H9.64184C9.44388 15.7425 9.25403 15.6638 9.11405 15.5239C8.97407 15.3839 8.89543 15.194 8.89543 14.9961C8.89543 14.7981 8.97407 14.6082 9.11405 14.4683C9.25403 14.3283 9.44388 14.2497 9.64184 14.2497H16.5253C16.7232 14.2497 16.9131 14.3283 17.053 14.4683C17.193 14.6082 17.2717 14.7981 17.2717 14.9961C17.2717 15.194 17.193 15.3839 17.053 15.5239C16.9131 15.6638 16.7232 15.7425 16.5253 15.7425Z"/>
</mask>
<path d="M16.5253 6.11376V4.06113H13.7785V6.11376V8.1664H16.5253V6.11376ZM13.7785 6.11376V4.06113C14.1249 4.06113 14.4571 4.19875 14.7021 4.44372L13.2507 5.89515L11.7992 7.34658C12.3242 7.87149 13.0361 8.1664 13.7785 8.1664V6.11376ZM13.2507 5.89515L14.7021 4.44372C14.9471 4.68867 15.0847 5.02092 15.0847 5.36735H13.032H10.9794C10.9794 6.10971 11.2743 6.82166 11.7992 7.34658L13.2507 5.89515ZM13.032 5.36735H15.0847C15.0847 5.71379 14.9471 6.04603 14.7021 6.29099L13.2507 4.83956L11.7992 3.38813C11.2743 3.91305 10.9794 4.62499 10.9794 5.36735H13.032ZM13.2507 4.83956L14.7021 6.29099C14.4571 6.53595 14.1249 6.67357 13.7785 6.67357V4.62094V2.56831C13.0361 2.56831 12.3242 2.86321 11.7992 3.38813L13.2507 4.83956ZM13.7785 4.62094V6.67357H16.5253V4.62094V2.56831H13.7785V4.62094ZM16.5253 4.62094V6.67357C16.1788 6.67357 15.8466 6.53595 15.6016 6.29099L17.053 4.83956L18.5045 3.38813C17.9796 2.86321 17.2676 2.56831 16.5253 2.56831V4.62094ZM17.053 4.83956L15.6016 6.29099C15.3566 6.04602 15.219 5.71378 15.219 5.36735H17.2717H19.3243C19.3243 4.625 19.0294 3.91306 18.5045 3.38813L17.053 4.83956ZM17.2717 5.36735H15.219C15.219 5.02093 15.3566 4.68868 15.6016 4.44372L17.053 5.89515L18.5045 7.34658C19.0294 6.82165 19.3243 6.1097 19.3243 5.36735H17.2717ZM17.053 5.89515L15.6016 4.44372C15.8466 4.19875 16.1788 4.06113 16.5253 4.06113V6.11376V8.1664C17.2676 8.1664 17.9796 7.8715 18.5045 7.34658L17.053 5.89515ZM10.7197 6.11376V4.06113H3.83626V6.11376V8.1664H10.7197V6.11376ZM3.83626 6.11376V4.06113C4.18269 4.06113 4.51493 4.19875 4.75989 4.44372L3.30846 5.89515L1.85703 7.34658C2.38195 7.8715 3.0939 8.1664 3.83626 8.1664V6.11376ZM3.30846 5.89515L4.75989 4.44372C5.00486 4.68868 5.14248 5.02092 5.14248 5.36735H3.08984H1.03721C1.03721 6.10971 1.33211 6.82165 1.85703 7.34658L3.30846 5.89515ZM3.08984 5.36735H5.14248C5.14248 5.71379 5.00486 6.04603 4.75989 6.29099L3.30846 4.83956L1.85703 3.38813C1.33211 3.91305 1.03721 4.625 1.03721 5.36735H3.08984ZM3.30846 4.83956L4.75989 6.29099C4.51493 6.53595 4.18269 6.67357 3.83626 6.67357V4.62094V2.56831C3.0939 2.56831 2.38195 2.86321 1.85703 3.38813L3.30846 4.83956ZM3.83626 4.62094V6.67357H10.7197V4.62094V2.56831H3.83626V4.62094ZM10.7197 4.62094V6.67357C10.3732 6.67357 10.041 6.53595 9.79603 6.29099L11.2475 4.83956L12.6989 3.38813C12.174 2.86321 11.462 2.56831 10.7197 2.56831V4.62094ZM11.2475 4.83956L9.79603 6.29099C9.55106 6.04602 9.41344 5.71378 9.41344 5.36735H11.4661H13.5187C13.5187 4.625 13.2238 3.91306 12.6989 3.38813L11.2475 4.83956ZM11.4661 5.36735H9.41344C9.41344 5.02093 9.55106 4.68868 9.79603 4.44372L11.2475 5.89515L12.6989 7.34658C13.2238 6.82165 13.5187 6.1097 13.5187 5.36735H11.4661ZM11.2475 5.89515L9.79603 4.44372C10.041 4.19875 10.3732 4.06113 10.7197 4.06113V6.11376V8.1664C11.462 8.1664 12.174 7.8715 12.6989 7.34658L11.2475 5.89515ZM16.5253 10.9281V8.87549H3.83626V10.9281V12.9808H16.5253V10.9281ZM3.83626 10.9281V8.87549C4.18268 8.87549 4.51493 9.0131 4.75989 9.25807L3.30846 10.7095L1.85703 12.1609C2.38196 12.6859 3.09391 12.9808 3.83626 12.9808V10.9281ZM3.30846 10.7095L4.75989 9.25807C5.00486 9.50304 5.14248 9.83528 5.14248 10.1817H3.08984H1.03721C1.03721 10.9241 1.33211 11.636 1.85703 12.1609L3.30846 10.7095ZM3.08984 10.1817H5.14248C5.14248 10.5281 5.00486 10.8604 4.75989 11.1053L3.30846 9.65391L1.85703 8.20248C1.33211 8.72741 1.03721 9.43936 1.03721 10.1817H3.08984ZM3.30846 9.65391L4.75989 11.1053C4.51493 11.3503 4.18268 11.4879 3.83626 11.4879V9.4353V7.38266C3.09391 7.38266 2.38196 7.67756 1.85703 8.20248L3.30846 9.65391ZM3.83626 9.4353V11.4879H16.5253V9.4353V7.38266H3.83626V9.4353ZM16.5253 9.4353V11.4879C16.1788 11.4879 15.8466 11.3503 15.6016 11.1053L17.053 9.65391L18.5045 8.20248C17.9795 7.67756 17.2676 7.38266 16.5253 7.38266V9.4353ZM17.053 9.65391L15.6016 11.1053C15.3566 10.8604 15.219 10.5281 15.219 10.1817H17.2717H19.3243C19.3243 9.43936 19.0294 8.72741 18.5045 8.20248L17.053 9.65391ZM17.2717 10.1817H15.219C15.219 9.83528 15.3566 9.50304 15.6016 9.25807L17.053 10.7095L18.5045 12.1609C19.0294 11.636 19.3243 10.9241 19.3243 10.1817H17.2717ZM17.053 10.7095L15.6016 9.25807C15.8466 9.0131 16.1788 8.87549 16.5253 8.87549V10.9281V12.9808C17.2676 12.9808 17.9795 12.6859 18.5045 12.1609L17.053 10.7095ZM6.58305 15.7425V13.6898H3.83626V15.7425V17.7951H6.58305V15.7425ZM3.83626 15.7425V13.6898C4.18269 13.6898 4.51493 13.8275 4.75989 14.0724L3.30846 15.5239L1.85703 16.9753C2.38195 17.5002 3.0939 17.7951 3.83626 17.7951V15.7425ZM3.30846 15.5239L4.75989 14.0724C5.00485 14.3174 5.14248 14.6496 5.14248 14.9961H3.08984H1.03721C1.03721 15.7384 1.33211 16.4504 1.85703 16.9753L3.30846 15.5239ZM3.08984 14.9961H5.14248C5.14248 15.3425 5.00486 15.6747 4.75989 15.9197L3.30846 14.4683L1.85703 13.0168C1.33211 13.5418 1.03721 14.2537 1.03721 14.9961H3.08984ZM3.30846 14.4683L4.75989 15.9197C4.51493 16.1647 4.18268 16.3023 3.83626 16.3023V14.2497V12.197C3.09391 12.197 2.38196 12.4919 1.85703 13.0168L3.30846 14.4683ZM3.83626 14.2497V16.3023H6.58305V14.2497V12.197H3.83626V14.2497ZM6.58305 14.2497V16.3023C6.23662 16.3023 5.90438 16.1647 5.65941 15.9197L7.11084 14.4683L8.56227 13.0168C8.03735 12.4919 7.3254 12.197 6.58305 12.197V14.2497ZM7.11084 14.4683L5.65941 15.9197C5.41445 15.6747 5.27683 15.3425 5.27683 14.9961H7.32946H9.38209C9.38209 14.2537 9.08719 13.5418 8.56227 13.0168L7.11084 14.4683ZM7.32946 14.9961H5.27683C5.27683 14.6496 5.41445 14.3174 5.65941 14.0724L7.11084 15.5239L8.56227 16.9753C9.08719 16.4504 9.38209 15.7384 9.38209 14.9961H7.32946ZM7.11084 15.5239L5.65941 14.0724C5.90437 13.8275 6.23661 13.6898 6.58305 13.6898V15.7425V17.7951C7.32541 17.7951 8.03735 17.5002 8.56227 16.9753L7.11084 15.5239ZM16.5253 15.7425V13.6898H9.64184V15.7425V17.7951H16.5253V15.7425ZM9.64184 15.7425V13.6898C9.98828 13.6898 10.3205 13.8275 10.5655 14.0724L9.11405 15.5239L7.66262 16.9753C8.18754 17.5002 8.89949 17.7951 9.64184 17.7951V15.7425ZM9.11405 15.5239L10.5655 14.0724C10.8104 14.3174 10.9481 14.6496 10.9481 14.9961H8.89543H6.8428C6.8428 15.7384 7.1377 16.4504 7.66262 16.9753L9.11405 15.5239ZM8.89543 14.9961H10.9481C10.9481 15.3425 10.8104 15.6747 10.5655 15.9197L9.11405 14.4683L7.66262 13.0168C7.13769 13.5418 6.8428 14.2537 6.8428 14.9961H8.89543ZM9.11405 14.4683L10.5655 15.9197C10.3205 16.1647 9.98827 16.3023 9.64184 16.3023V14.2497V12.197C8.8995 12.197 8.18755 12.4919 7.66262 13.0168L9.11405 14.4683ZM9.64184 14.2497V16.3023H16.5253V14.2497V12.197H9.64184V14.2497ZM16.5253 14.2497V16.3023C16.1788 16.3023 15.8466 16.1647 15.6016 15.9197L17.053 14.4683L18.5045 13.0168C17.9795 12.4919 17.2676 12.197 16.5253 12.197V14.2497ZM17.053 14.4683L15.6016 15.9197C15.3566 15.6747 15.219 15.3425 15.219 14.9961H17.2717H19.3243C19.3243 14.2537 19.0294 13.5418 18.5045 13.0168L17.053 14.4683ZM17.2717 14.9961H15.219C15.219 14.6496 15.3566 14.3174 15.6016 14.0724L17.053 15.5239L18.5045 16.9753C19.0294 16.4504 19.3243 15.7384 19.3243 14.9961H17.2717ZM17.053 15.5239L15.6016 14.0724C15.8466 13.8275 16.1788 13.6898 16.5253 13.6898V15.7425V17.7951C17.2676 17.7951 17.9796 17.5002 18.5045 16.9753L17.053 15.5239Z" fill="white" mask="url(#path-3-inside-2_890_27473)"/>
<mask id="path-5-inside-3_890_27473" fill="white">
<path fill-rule="evenodd" clip-rule="evenodd" d="M8.11249 14.2125C7.67957 14.2125 7.32876 14.5649 7.32876 14.9963C7.32876 15.1513 7.37473 15.3028 7.46084 15.4317C7.54696 15.5606 7.66936 15.661 7.81257 15.7204C7.95578 15.7797 8.11336 15.7952 8.26539 15.765C8.41742 15.7347 8.55707 15.6601 8.66667 15.5505C8.77628 15.4409 8.85093 15.3012 8.88117 15.1492C8.91141 14.9972 8.89589 14.8396 8.83657 14.6964C8.77725 14.5532 8.6768 14.4308 8.54791 14.3446C8.41903 14.2585 8.2675 14.2125 8.11249 14.2125ZM8.11249 17.2728C7.50889 17.2722 6.93019 17.0322 6.50338 16.6054C6.07657 16.1786 5.83653 15.5999 5.83594 14.9963C5.83653 14.3927 6.07657 13.814 6.50338 13.3872C6.93019 12.9604 7.50889 12.7203 8.11249 12.7197C8.71596 12.7205 9.29448 12.9606 9.72112 13.3874C10.1478 13.8142 10.3877 14.3928 10.3883 14.9963C10.3877 15.5999 10.1477 16.1786 9.72086 16.6054C9.29405 17.0322 8.71609 17.2722 8.11249 17.2728Z"/>
</mask>
<path d="M8.11249 17.2728L8.11048 19.3255L8.11451 19.3255L8.11249 17.2728ZM5.83594 14.9963L3.7833 14.9943L3.78331 14.9983L5.83594 14.9963ZM8.11249 12.7197L8.11518 10.6671L8.11048 10.6671L8.11249 12.7197ZM10.3883 14.9963L12.4409 14.9983L12.4409 14.9943L10.3883 14.9963ZM8.11249 14.2125V12.1599C6.54339 12.1599 5.27613 13.4338 5.27613 14.9963H7.32876H9.38139C9.38139 15.6959 8.81576 16.2652 8.11249 16.2652V14.2125ZM7.32876 14.9963H5.27613C5.27613 15.5573 5.44248 16.1056 5.75414 16.5721L7.46084 15.4317L9.16754 14.2913C9.30697 14.5 9.38139 14.7453 9.38139 14.9963H7.32876ZM7.46084 15.4317L5.75414 16.5721C6.06581 17.0385 6.50879 17.4021 7.02706 17.6167L7.81257 15.7204L8.59808 13.824C8.82994 13.92 9.02811 14.0826 9.16754 14.2913L7.46084 15.4317ZM7.81257 15.7204L7.02706 17.6167C7.54534 17.8314 8.11564 17.8876 8.66584 17.7781L8.26539 15.765L7.86494 13.7518C8.11109 13.7028 8.36622 13.7279 8.59808 13.824L7.81257 15.7204ZM8.26539 15.765L8.66584 17.7781C9.21603 17.6687 9.72143 17.3986 10.1181 17.0019L8.66667 15.5505L7.21524 14.099C7.39271 13.9216 7.61881 13.8007 7.86494 13.7518L8.26539 15.765ZM8.66667 15.5505L10.1181 17.0019C10.5148 16.6052 10.7849 16.0998 10.8944 15.5496L8.88117 15.1492L6.86797 14.7487C6.91694 14.5026 7.03779 14.2765 7.21524 14.099L8.66667 15.5505ZM8.88117 15.1492L10.8944 15.5496C11.0038 14.9994 10.9476 14.4291 10.733 13.9109L8.83657 14.6964L6.94018 15.4819C6.84414 15.25 6.81901 14.9949 6.86797 14.7487L8.88117 15.1492ZM8.83657 14.6964L10.733 13.9109C10.5183 13.3926 10.1547 12.9496 9.68829 12.6379L8.54791 14.3446L7.40753 16.0513C7.19887 15.9119 7.03622 15.7137 6.94018 15.4819L8.83657 14.6964ZM8.54791 14.3446L9.68829 12.6379C9.22186 12.3263 8.67348 12.1599 8.11249 12.1599V14.2125V16.2652C7.86152 16.2652 7.61619 16.1908 7.40753 16.0513L8.54791 14.3446ZM8.11249 17.2728L8.11451 15.2202C8.0546 15.2201 7.99717 15.1963 7.95481 15.154L6.50338 16.6054L5.05195 18.0568C5.86321 18.8681 6.96319 19.3243 8.11048 19.3255L8.11249 17.2728ZM6.50338 16.6054L7.95481 15.154C7.91245 15.1116 7.88863 15.0542 7.88857 14.9943L5.83594 14.9963L3.78331 14.9983C3.78443 16.1456 4.24069 17.2456 5.05195 18.0568L6.50338 16.6054ZM5.83594 14.9963L7.88857 14.9983C7.88863 14.9384 7.91245 14.881 7.95481 14.8386L6.50338 13.3872L5.05195 11.9357C4.24069 12.747 3.78443 13.847 3.78331 14.9943L5.83594 14.9963ZM6.50338 13.3872L7.95481 14.8386C7.99717 14.7962 8.0546 14.7724 8.11451 14.7724L8.11249 12.7197L8.11048 10.6671C6.96319 10.6682 5.86321 11.1245 5.05195 11.9357L6.50338 13.3872ZM8.11249 12.7197L8.1098 14.7724C8.1697 14.7724 8.22711 14.7963 8.26946 14.8386L9.72112 13.3874L11.1728 11.9362C10.3618 11.125 9.26222 10.6686 8.11518 10.6671L8.11249 12.7197ZM9.72112 13.3874L8.26946 14.8386C8.3118 14.881 8.33561 14.9384 8.33567 14.9983L10.3883 14.9963L12.4409 14.9943C12.4398 13.8472 11.9837 12.7475 11.1728 11.9362L9.72112 13.3874ZM10.3883 14.9963L8.33567 14.9943C8.33561 15.0542 8.31179 15.1116 8.26943 15.154L9.72086 16.6054L11.1723 18.0568C11.9835 17.2456 12.4398 16.1456 12.4409 14.9983L10.3883 14.9963ZM9.72086 16.6054L8.26943 15.154C8.22656 15.1968 8.16967 15.2201 8.11048 15.2202L8.11249 17.2728L8.11451 19.3255C9.26251 19.3243 10.3615 18.8676 11.1723 18.0568L9.72086 16.6054Z" fill="white" mask="url(#path-5-inside-3_890_27473)"/>
</svg>
