<svg width="current" height="current" viewBox="0 0 22 22" fill="current" xmlns="http://www.w3.org/2000/svg">
    <path d="M6.48462 17.6479C6.21436 17.4436 6.15503 17.1074 6.31982 16.6262L7.69751 12.5261L4.17749 9.99487C3.7688 9.70483 3.59741 9.40161 3.70947 9.07202C3.81494 8.75562 4.12476 8.59741 4.63232 8.604L8.94995 8.63037L10.2617 4.5105C10.4199 4.02271 10.6572 3.77881 10.9934 3.77881C11.3362 3.77881 11.5735 4.02271 11.7317 4.5105L13.0435 8.63037L17.3611 8.604C17.8687 8.59741 18.1785 8.75562 18.2839 9.07202C18.3894 9.40161 18.2246 9.70483 17.8159 9.99487L14.2959 12.5261L15.6736 16.6262C15.8384 17.1074 15.7791 17.4436 15.5088 17.6479C15.2319 17.8589 14.8958 17.7864 14.4871 17.4897L10.9934 14.9255L7.50635 17.4897C7.09766 17.7864 6.75488 17.8589 6.48462 17.6479Z" fill="current"/>
</svg>
