<svg width="current" height="current" viewBox="0 0 22 22" fill="current" xmlns="http://www.w3.org/2000/svg">
    <path d="M4 11.463C4 9.31655 5.05957 7.19741 6.65234 5.97377C7.06934 5.63198 7.55469 5.67299 7.81445 6.02163C8.1084 6.39077 7.99219 6.84194 7.64355 7.16323C6.37207 8.18862 5.57227 9.71303 5.56543 11.463C5.55859 14.546 8.04688 17.0275 11.1299 17.0275C14.2129 17.0275 16.6875 14.546 16.6875 11.463C16.6875 8.88588 14.9648 6.7394 12.5996 6.11049V6.99916C12.5996 7.55288 12.1758 7.69643 11.7109 7.37514L9.33203 5.74135C8.95605 5.48159 8.95605 5.05092 9.33203 4.79116L11.7178 3.1642C12.1826 2.84975 12.5996 2.9933 12.5996 3.54018V4.49038C15.8125 5.17397 18.2598 8.05873 18.2598 11.463C18.2598 15.3732 15.04 18.5929 11.1299 18.5929C7.21973 18.5929 4 15.3732 4 11.463Z" fill="current"/>
</svg>
