<svg width="current" height="current" viewBox="0 0 22 22" fill="current" xmlns="http://www.w3.org/2000/svg">
    <path d="M7.02344 3V4.56864M14.9764 3V4.56864" stroke="current" stroke-width="2" stroke-linecap="round"/>
    <path d="M4.95898 4.78418H17.0381C17.1888 4.78426 17.3329 4.8446 17.4395 4.95117C17.546 5.05775 17.6064 5.20184 17.6064 5.35254V17.4316C17.6064 17.5823 17.546 17.7264 17.4395 17.833C17.3329 17.9396 17.1888 17.9999 17.0381 18H4.95898C4.80828 17.9999 4.66419 17.9396 4.55762 17.833C4.45105 17.7264 4.3907 17.5823 4.39062 17.4316V5.35254C4.3907 5.20183 4.45104 5.05775 4.55762 4.95117C4.66419 4.8446 4.80827 4.78425 4.95898 4.78418Z" stroke="current" stroke-width="2"/>
    <path d="M11 13.3057H14.1373" stroke="current" stroke-width="2" stroke-linecap="round"/>
</svg>
