<svg width="current" height="current" viewBox="0 0 28 28" fill="current" xmlns="http://www.w3.org/2000/svg">
<path d="M13.9624 19.986H20.7724C21.0376 20.0009 21.3021 19.9476 21.5409 19.8311C21.7796 19.7147 21.9846 19.5391 22.1362 19.321C22.2878 19.1029 22.381 18.8497 22.4069 18.5853C22.4329 18.321 22.3907 18.0544 22.2844 17.811C21.9244 16.723 20.4894 15.418 20.4894 14.134C20.4894 11.284 20.4894 10.534 19.0854 8.858C18.631 8.31854 18.0677 7.8813 17.4324 7.575L16.6494 7.195C16.518 7.1157 16.4047 7.00979 16.3166 6.88406C16.2286 6.75834 16.1679 6.6156 16.1384 6.465C16.0601 5.95741 15.7917 5.49859 15.3876 5.18159C14.9835 4.8646 14.474 4.71316 13.9624 4.758C13.46 4.72784 12.9644 4.88602 12.5724 5.20167C12.1804 5.51731 11.9201 5.96775 11.8424 6.465C11.8071 6.6208 11.7381 6.76694 11.6401 6.89308C11.5421 7.01923 11.4176 7.1223 11.2754 7.195L10.4924 7.575C9.85741 7.88142 9.29443 8.31865 8.84037 8.858C7.43737 10.534 7.43737 11.284 7.43737 14.134C7.43737 15.418 6.06737 16.592 5.70737 17.745C5.49037 18.442 5.37037 19.986 7.18737 19.986H13.9624Z" stroke="white" stroke-width="1.5" stroke-linecap="round" stroke-linejoin="round"/>
<path d="M17.225 19.986C17.2335 20.4168 17.155 20.845 16.994 21.2448C16.8331 21.6445 16.5931 22.0076 16.2883 22.3124C15.9836 22.6171 15.6205 22.8571 15.2207 23.0181C14.821 23.179 14.3928 23.2576 13.962 23.249C13.531 23.2581 13.1026 23.18 12.7027 23.0192C12.3027 22.8585 11.9394 22.6184 11.6347 22.3136C11.3299 22.0087 11.09 21.6454 10.9294 21.2453C10.7687 20.8453 10.6907 20.417 10.7 19.986" stroke="white" stroke-width="1.5" stroke-linecap="round" stroke-linejoin="round"/>
</svg>
