<svg width="current" height="current" viewBox="0 0 22 23" fill="none" xmlns="http://www.w3.org/2000/svg">
<mask id="path-1-inside-1_890_27449" fill="white">
<path fill-rule="evenodd" clip-rule="evenodd" d="M13.4721 5.5425C13.2482 5.54941 13.0358 5.64322 12.8798 5.80407C12.7239 5.96491 12.6366 6.18015 12.6366 6.40419C12.6366 6.62823 12.7239 6.84347 12.8798 7.00431C13.0358 7.16516 13.2482 7.25897 13.4721 7.26589C13.9483 7.26589 14.3342 6.87917 14.3342 6.40378C14.334 6.17528 14.2431 5.95621 14.0814 5.79471C13.9198 5.63321 13.7006 5.5425 13.4721 5.5425ZM13.4721 8.90799C12.8083 8.90712 12.172 8.64298 11.7026 8.17351C11.2333 7.70405 10.9694 7.0676 10.9688 6.40378C10.9696 5.73996 11.2338 5.1036 11.7032 4.63429C12.1727 4.16497 12.8091 3.90104 13.473 3.90039C14.1368 3.90104 14.7732 4.16497 15.2427 4.63429C15.7122 5.1036 15.9763 5.73996 15.9772 6.40378C15.9765 7.06774 15.7125 7.70431 15.243 8.1738C14.7735 8.64329 14.1361 8.90734 13.4721 8.90799Z"/>
</mask>
<path d="M13.4721 5.5425L13.4721 3.48986H13.4405L13.4088 3.49084L13.4721 5.5425ZM12.6366 6.40419H10.584H12.6366ZM13.4721 7.26589L13.4088 9.31754L13.4405 9.31852H13.4721V7.26589ZM14.3342 6.40378H16.3869L16.3869 6.40182L14.3342 6.40378ZM13.4721 8.90799L13.4695 10.9606L13.4742 10.9606L13.4721 8.90799ZM10.9688 6.40378L8.91611 6.40109L8.91612 6.4058L10.9688 6.40378ZM13.473 3.90039L13.475 1.84776L13.4709 1.84776L13.473 3.90039ZM15.9772 6.40378L18.0298 6.4058L18.0298 6.40109L15.9772 6.40378ZM13.4721 5.5425L13.4088 3.49084C12.6517 3.51421 11.9334 3.8314 11.4062 4.37521L12.8798 5.80407L14.3535 7.23293C14.1381 7.45505 13.8447 7.5846 13.5355 7.59415L13.4721 5.5425ZM12.8798 5.80407L11.4062 4.37521C10.8789 4.91901 10.584 5.64672 10.584 6.40419H12.6366H14.6893C14.6893 6.71358 14.5688 7.01082 14.3535 7.23293L12.8798 5.80407ZM12.6366 6.40419H10.584C10.584 7.16166 10.8789 7.88937 11.4062 8.43317L12.8798 7.00431L14.3535 5.57545C14.5688 5.79756 14.6893 6.0948 14.6893 6.40419H12.6366ZM12.8798 7.00431L11.4062 8.43317C11.9334 8.97698 12.6517 9.29417 13.4088 9.31754L13.4721 7.26589L13.5355 5.21423C13.8447 5.22378 14.1381 5.35333 14.3535 5.57545L12.8798 7.00431ZM13.4721 7.26589V9.31852C15.0833 9.31852 16.3869 8.01153 16.3869 6.40378H14.3342H12.2816C12.2816 5.74681 12.8134 5.21325 13.4721 5.21325V7.26589ZM14.3342 6.40378L16.3869 6.40182C16.3861 5.62927 16.0787 4.88861 15.5322 4.34259L14.0814 5.79471L12.6307 7.24683C12.4075 7.02381 12.2819 6.72129 12.2816 6.40573L14.3342 6.40378ZM14.0814 5.79471L15.5322 4.34259C14.9856 3.79657 14.2447 3.48986 13.4721 3.48986L13.4721 5.5425L13.4721 7.59513C13.1566 7.59513 12.8539 7.46985 12.6307 7.24683L14.0814 5.79471ZM13.4721 8.90799L13.4748 6.85536C13.3546 6.8552 13.2393 6.80736 13.1543 6.72232L11.7026 8.17351L10.251 9.62471C11.1046 10.4786 12.2621 10.959 13.4695 10.9606L13.4721 8.90799ZM11.7026 8.17351L13.1543 6.72232C13.0693 6.63729 13.0215 6.52201 13.0214 6.40176L10.9688 6.40378L8.91612 6.4058C8.9173 7.61319 9.39736 8.77081 10.251 9.62471L11.7026 8.17351ZM10.9688 6.40378L13.0214 6.40647C13.0215 6.28623 13.0694 6.17096 13.1544 6.08595L11.7032 4.63429L10.252 3.18262C9.39814 4.03623 8.9177 5.1937 8.91612 6.40109L10.9688 6.40378ZM11.7032 4.63429L13.1544 6.08595C13.2395 6.00095 13.3547 5.95314 13.475 5.95302L13.473 3.90039L13.4709 1.84776C12.2636 1.84895 11.1059 2.329 10.252 3.18262L11.7032 4.63429ZM13.473 3.90039L13.4709 5.95302C13.5912 5.95314 13.7065 6.00095 13.7915 6.08595L15.2427 4.63429L16.6939 3.18262C15.84 2.329 14.6824 1.84895 13.475 1.84776L13.473 3.90039ZM15.2427 4.63429L13.7915 6.08595C13.8765 6.17096 13.9244 6.28623 13.9245 6.40647L15.9772 6.40378L18.0298 6.40109C18.0282 5.1937 17.5478 4.03623 16.6939 3.18262L15.2427 4.63429ZM15.9772 6.40378L13.9245 6.40176C13.9244 6.52203 13.8766 6.63733 13.7916 6.72237L15.243 8.1738L16.6944 9.62523C17.5484 8.7713 18.0286 7.61345 18.0298 6.4058L15.9772 6.40378ZM15.243 8.1738L13.7916 6.72237C13.707 6.80691 13.5911 6.85524 13.4701 6.85536L13.4721 8.90799L13.4742 10.9606C14.6811 10.9594 15.84 10.4797 16.6944 9.62523L15.243 8.1738Z" fill="#626262" mask="url(#path-1-inside-1_890_27449)"/>
<mask id="path-3-inside-2_890_27449" fill="white">
<path fill-rule="evenodd" clip-rule="evenodd" d="M18.1774 7.22609H15.1559C14.9382 7.22609 14.7293 7.13959 14.5753 6.98561C14.4214 6.83163 14.3349 6.62279 14.3349 6.40504C14.3349 6.18728 14.4214 5.97844 14.5753 5.82447C14.7293 5.67049 14.9382 5.58398 15.1559 5.58398H18.1774C18.3951 5.58398 18.604 5.67049 18.758 5.82447C18.9119 5.97844 18.9984 6.18728 18.9984 6.40504C18.9984 6.62279 18.9119 6.83163 18.758 6.98561C18.604 7.13959 18.3951 7.22609 18.1774 7.22609ZM11.7912 7.22609H4.21949C4.00173 7.22609 3.7929 7.13959 3.63892 6.98561C3.48494 6.83163 3.39844 6.62279 3.39844 6.40504C3.39844 6.18728 3.48494 5.97844 3.63892 5.82447C3.7929 5.67049 4.00173 5.58398 4.21949 5.58398H11.7912C12.009 5.58398 12.2178 5.67049 12.3718 5.82447C12.5258 5.97844 12.6123 6.18728 12.6123 6.40504C12.6123 6.62279 12.5258 6.83163 12.3718 6.98561C12.2178 7.13959 12.009 7.22609 11.7912 7.22609ZM18.1774 12.5219H4.21949C4.00173 12.5219 3.7929 12.4354 3.63892 12.2814C3.48494 12.1274 3.39844 11.9186 3.39844 11.7008C3.39844 11.4831 3.48494 11.2742 3.63892 11.1203C3.7929 10.9663 4.00173 10.8798 4.21949 10.8798H18.1774C18.3951 10.8798 18.604 10.9663 18.758 11.1203C18.9119 11.2742 18.9984 11.4831 18.9984 11.7008C18.9984 11.9186 18.9119 12.1274 18.758 12.2814C18.604 12.4354 18.3951 12.5219 18.1774 12.5219ZM7.24096 17.8177H4.21949C4.00173 17.8177 3.7929 17.7312 3.63892 17.5772C3.48494 17.4232 3.39844 17.2144 3.39844 16.9966C3.39844 16.7789 3.48494 16.57 3.63892 16.416C3.7929 16.2621 4.00173 16.1756 4.21949 16.1756H7.24096C7.45872 16.1756 7.66756 16.2621 7.82154 16.416C7.97551 16.57 8.06202 16.7789 8.06202 16.9966C8.06202 17.2144 7.97551 17.4232 7.82154 17.5772C7.66756 17.7312 7.45872 17.8177 7.24096 17.8177ZM18.1774 17.8177H10.6056C10.3879 17.8177 10.179 17.7312 10.0251 17.5772C9.87109 17.4232 9.78459 17.2144 9.78459 16.9966C9.78459 16.7789 9.87109 16.57 10.0251 16.416C10.179 16.2621 10.3879 16.1756 10.6056 16.1756H18.1774C18.3951 16.1756 18.604 16.2621 18.758 16.416C18.9119 16.57 18.9984 16.7789 18.9984 16.9966C18.9984 17.2144 18.9119 17.4232 18.758 17.5772C18.604 17.7312 18.3951 17.8177 18.1774 17.8177Z"/>
</mask>
<path d="M18.1774 7.22609V5.17346H15.1559V7.22609V9.27872H18.1774V7.22609ZM15.1559 7.22609V5.17346C15.4826 5.17346 15.7958 5.30322 16.0268 5.53418L14.5753 6.98561L13.1239 8.43704C13.6628 8.97596 14.3938 9.27872 15.1559 9.27872V7.22609ZM14.5753 6.98561L16.0268 5.53418C16.2577 5.76514 16.3875 6.0784 16.3875 6.40504H14.3349H12.2822C12.2822 7.16719 12.585 7.89812 13.1239 8.43704L14.5753 6.98561ZM14.3349 6.40504H16.3875C16.3875 6.73168 16.2577 7.04493 16.0268 7.2759L14.5753 5.82447L13.1239 4.37304C12.585 4.91195 12.2822 5.64288 12.2822 6.40504H14.3349ZM14.5753 5.82447L16.0268 7.2759C15.7958 7.50686 15.4826 7.63662 15.1559 7.63662V5.58398V3.53135C14.3938 3.53135 13.6628 3.83412 13.1239 4.37304L14.5753 5.82447ZM15.1559 5.58398V7.63662H18.1774V5.58398V3.53135H15.1559V5.58398ZM18.1774 5.58398V7.63662C17.8508 7.63662 17.5375 7.50686 17.3065 7.2759L18.758 5.82447L20.2094 4.37304C19.6705 3.83411 18.9395 3.53135 18.1774 3.53135V5.58398ZM18.758 5.82447L17.3065 7.2759C17.0756 7.04493 16.9458 6.73167 16.9458 6.40504H18.9984H21.0511C21.0511 5.64289 20.7483 4.91196 20.2094 4.37304L18.758 5.82447ZM18.9984 6.40504H16.9458C16.9458 6.07841 17.0756 5.76515 17.3065 5.53418L18.758 6.98561L20.2094 8.43704C20.7483 7.89812 21.0511 7.16718 21.0511 6.40504H18.9984ZM18.758 6.98561L17.3065 5.53418C17.5375 5.30321 17.8508 5.17346 18.1774 5.17346V7.22609V9.27872C18.9395 9.27872 19.6705 8.97596 20.2094 8.43704L18.758 6.98561ZM11.7912 7.22609V5.17346H4.21949V7.22609V9.27872H11.7912V7.22609ZM4.21949 7.22609V5.17346C4.54613 5.17346 4.85938 5.30321 5.09035 5.53418L3.63892 6.98561L2.18749 8.43704C2.72641 8.97596 3.45734 9.27872 4.21949 9.27872V7.22609ZM3.63892 6.98561L5.09035 5.53418C5.32131 5.76514 5.45107 6.0784 5.45107 6.40504H3.39844H1.34581C1.34581 7.16719 1.64857 7.89812 2.18749 8.43704L3.63892 6.98561ZM3.39844 6.40504H5.45107C5.45107 6.73167 5.32131 7.04493 5.09035 7.2759L3.63892 5.82447L2.18749 4.37304C1.64857 4.91195 1.34581 5.64289 1.34581 6.40504H3.39844ZM3.63892 5.82447L5.09035 7.2759C4.85938 7.50686 4.54613 7.63662 4.21949 7.63662V5.58398V3.53135C3.45734 3.53135 2.72641 3.83412 2.18749 4.37304L3.63892 5.82447ZM4.21949 5.58398V7.63662H11.7912V5.58398V3.53135H4.21949V5.58398ZM11.7912 5.58398V7.63662C11.4646 7.63662 11.1513 7.50686 10.9204 7.2759L12.3718 5.82447L13.8232 4.37304C13.2843 3.83411 12.5534 3.53135 11.7912 3.53135V5.58398ZM12.3718 5.82447L10.9204 7.2759C10.6894 7.04493 10.5597 6.73167 10.5597 6.40504H12.6123H14.6649C14.6649 5.64289 14.3622 4.91196 13.8232 4.37304L12.3718 5.82447ZM12.6123 6.40504H10.5597C10.5597 6.07841 10.6894 5.76515 10.9204 5.53418L12.3718 6.98561L13.8232 8.43704C14.3622 7.89812 14.6649 7.16718 14.6649 6.40504H12.6123ZM12.3718 6.98561L10.9204 5.53418C11.1513 5.30321 11.4646 5.17346 11.7912 5.17346V7.22609V9.27872C12.5534 9.27872 13.2843 8.97596 13.8232 8.43704L12.3718 6.98561ZM18.1774 12.5219V10.4692H4.21949V12.5219V14.5745H18.1774V12.5219ZM4.21949 12.5219V10.4692C4.54612 10.4692 4.85938 10.599 5.09035 10.83L3.63892 12.2814L2.18749 13.7328C2.72641 14.2718 3.45735 14.5745 4.21949 14.5745V12.5219ZM3.63892 12.2814L5.09035 10.83C5.32131 11.0609 5.45107 11.3742 5.45107 11.7008H3.39844H1.34581C1.34581 12.463 1.64857 13.1939 2.18749 13.7328L3.63892 12.2814ZM3.39844 11.7008H5.45107C5.45107 12.0275 5.32131 12.3407 5.09035 12.5717L3.63892 11.1203L2.18749 9.66882C1.64857 10.2077 1.34581 10.9387 1.34581 11.7008H3.39844ZM3.63892 11.1203L5.09035 12.5717C4.85938 12.8027 4.54612 12.9324 4.21949 12.9324V10.8798V8.82714C3.45735 8.82714 2.72641 9.1299 2.18749 9.66882L3.63892 11.1203ZM4.21949 10.8798V12.9324H18.1774V10.8798V8.82714H4.21949V10.8798ZM18.1774 10.8798V12.9324C17.8508 12.9324 17.5375 12.8027 17.3065 12.5717L18.758 11.1203L20.2094 9.66882C19.6705 9.1299 18.9395 8.82714 18.1774 8.82714V10.8798ZM18.758 11.1203L17.3065 12.5717C17.0756 12.3407 16.9458 12.0275 16.9458 11.7008H18.9984H21.0511C21.0511 10.9387 20.7483 10.2077 20.2094 9.66882L18.758 11.1203ZM18.9984 11.7008H16.9458C16.9458 11.3742 17.0756 11.0609 17.3065 10.83L18.758 12.2814L20.2094 13.7328C20.7483 13.1939 21.0511 12.463 21.0511 11.7008H18.9984ZM18.758 12.2814L17.3065 10.83C17.5375 10.599 17.8508 10.4692 18.1774 10.4692V12.5219V14.5745C18.9395 14.5745 19.6705 14.2718 20.2094 13.7328L18.758 12.2814ZM7.24096 17.8177V15.765H4.21949V17.8177V19.8703H7.24096V17.8177ZM4.21949 17.8177V15.765C4.54613 15.765 4.85939 15.8948 5.09035 16.1258L3.63892 17.5772L2.18749 19.0286C2.7264 19.5675 3.45734 19.8703 4.21949 19.8703V17.8177ZM3.63892 17.5772L5.09035 16.1258C5.32131 16.3567 5.45107 16.67 5.45107 16.9966H3.39844H1.34581C1.34581 17.7588 1.64857 18.4897 2.18749 19.0286L3.63892 17.5772ZM3.39844 16.9966H5.45107C5.45107 17.3233 5.32131 17.6365 5.09035 17.8675L3.63892 16.416L2.18749 14.9646C1.64857 15.5035 1.34581 16.2345 1.34581 16.9966H3.39844ZM3.63892 16.416L5.09035 17.8675C4.85938 18.0984 4.54612 18.2282 4.21949 18.2282V16.1756V14.1229C3.45735 14.1229 2.72641 14.4257 2.18749 14.9646L3.63892 16.416ZM4.21949 16.1756V18.2282H7.24096V16.1756V14.1229H4.21949V16.1756ZM7.24096 16.1756V18.2282C6.91433 18.2282 6.60107 18.0984 6.37011 17.8675L7.82154 16.416L9.27297 14.9646C8.73404 14.4257 8.00311 14.1229 7.24096 14.1229V16.1756ZM7.82154 16.416L6.37011 17.8675C6.13914 17.6365 6.00939 17.3233 6.00939 16.9966H8.06202H10.1146C10.1146 16.2345 9.81189 15.5035 9.27297 14.9646L7.82154 16.416ZM8.06202 16.9966H6.00939C6.00939 16.67 6.13914 16.3567 6.37011 16.1258L7.82154 17.5772L9.27297 19.0286C9.81188 18.4897 10.1146 17.7588 10.1146 16.9966H8.06202ZM7.82154 17.5772L6.37011 16.1258C6.60107 15.8948 6.91432 15.765 7.24096 15.765V17.8177V19.8703C8.00312 19.8703 8.73405 19.5675 9.27297 19.0286L7.82154 17.5772ZM18.1774 17.8177V15.765H10.6056V17.8177V19.8703H18.1774V17.8177ZM10.6056 17.8177V15.765C10.9323 15.765 11.2455 15.8948 11.4765 16.1258L10.0251 17.5772L8.57364 19.0286C9.11255 19.5675 9.84349 19.8703 10.6056 19.8703V17.8177ZM10.0251 17.5772L11.4765 16.1258C11.7075 16.3567 11.8372 16.67 11.8372 16.9966H9.78459H7.73195C7.73195 17.7588 8.03471 18.4897 8.57364 19.0286L10.0251 17.5772ZM9.78459 16.9966H11.8372C11.8372 17.3232 11.7075 17.6365 11.4765 17.8675L10.0251 16.416L8.57364 14.9646C8.03471 15.5035 7.73195 16.2345 7.73195 16.9966H9.78459ZM10.0251 16.416L11.4765 17.8675C11.2455 18.0984 10.9323 18.2282 10.6056 18.2282V16.1756V14.1229C9.8435 14.1229 9.11256 14.4257 8.57364 14.9646L10.0251 16.416ZM10.6056 16.1756V18.2282H18.1774V16.1756V14.1229H10.6056V16.1756ZM18.1774 16.1756V18.2282C17.8508 18.2282 17.5375 18.0984 17.3065 17.8675L18.758 16.416L20.2094 14.9646C19.6705 14.4257 18.9395 14.1229 18.1774 14.1229V16.1756ZM18.758 16.416L17.3065 17.8675C17.0756 17.6365 16.9458 17.3232 16.9458 16.9966H18.9984H21.0511C21.0511 16.2345 20.7483 15.5035 20.2094 14.9646L18.758 16.416ZM18.9984 16.9966H16.9458C16.9458 16.67 17.0756 16.3567 17.3065 16.1258L18.758 17.5772L20.2094 19.0286C20.7483 18.4897 21.0511 17.7588 21.0511 16.9966H18.9984ZM18.758 17.5772L17.3065 16.1258C17.5375 15.8948 17.8507 15.765 18.1774 15.765V17.8177V19.8703C18.9395 19.8703 19.6705 19.5675 20.2094 19.0286L18.758 17.5772Z" fill="#626262" mask="url(#path-3-inside-2_890_27449)"/>
<mask id="path-5-inside-3_890_27449" fill="white">
<path fill-rule="evenodd" clip-rule="evenodd" d="M8.92218 16.1343C8.44597 16.1343 8.06007 16.5218 8.06007 16.9964C8.06007 17.1669 8.11064 17.3336 8.20536 17.4754C8.30009 17.6171 8.43474 17.7276 8.59227 17.7929C8.74979 17.8581 8.92314 17.8752 9.09037 17.8419C9.2576 17.8087 9.41121 17.7266 9.53178 17.606C9.65235 17.4854 9.73446 17.3318 9.76772 17.1646C9.80098 16.9974 9.78391 16.824 9.71866 16.6665C9.65341 16.509 9.54291 16.3743 9.40114 16.2796C9.25937 16.1849 9.09269 16.1343 8.92218 16.1343ZM8.92218 19.5006C8.25822 19.5 7.62164 19.2359 7.15216 18.7664C6.68267 18.2969 6.41862 17.6604 6.41797 16.9964C6.41862 16.3324 6.68267 15.6959 7.15216 15.2264C7.62164 14.7569 8.25822 14.4928 8.92218 14.4922C9.58599 14.4931 10.2224 14.7572 10.6917 15.2267C11.161 15.6961 11.4249 16.3326 11.4256 16.9964C11.4249 17.6604 11.1609 18.2969 10.6914 18.7664C10.2219 19.2359 9.58614 19.5 8.92218 19.5006Z"/>
</mask>
<path d="M8.92218 19.5006L8.92016 21.5532L8.9242 21.5532L8.92218 19.5006ZM6.41797 16.9964L4.36533 16.9944L4.36534 16.9984L6.41797 16.9964ZM8.92218 14.4922L8.92487 12.4396L8.92016 12.4396L8.92218 14.4922ZM11.4256 16.9964L13.4782 16.9984L13.4782 16.9944L11.4256 16.9964ZM8.92218 16.1343V14.0817C7.30978 14.0817 6.00744 15.3907 6.00744 16.9964H8.06007H10.1127C10.1127 17.6529 9.58215 18.1869 8.92218 18.1869V16.1343ZM8.06007 16.9964H6.00744C6.00744 17.5729 6.17839 18.1364 6.49866 18.6157L8.20536 17.4754L9.91207 16.335C10.0429 16.5308 10.1127 16.7609 10.1127 16.9964H8.06007ZM8.20536 17.4754L6.49866 18.6157C6.81894 19.0951 7.27416 19.4687 7.80676 19.6893L8.59227 17.7929L9.37777 15.8965C9.59531 15.9866 9.78125 16.1392 9.91207 16.335L8.20536 17.4754ZM8.59227 17.7929L7.80676 19.6893C8.33935 19.9099 8.92541 19.9676 9.49082 19.8551L9.09037 17.8419L8.68992 15.8287C8.92086 15.7828 9.16024 15.8064 9.37777 15.8965L8.59227 17.7929ZM9.09037 17.8419L9.49082 19.8551C10.0562 19.7427 10.5756 19.4651 10.9832 19.0574L9.53178 17.606L8.08035 16.1546C8.24685 15.9881 8.45899 15.8747 8.68992 15.8287L9.09037 17.8419ZM9.53178 17.606L10.9832 19.0574C11.3908 18.6498 11.6684 18.1304 11.7809 17.565L9.76772 17.1646L7.75453 16.7641C7.80047 16.5332 7.91385 16.3211 8.08035 16.1546L9.53178 17.606ZM9.76772 17.1646L11.7809 17.565C11.8934 16.9996 11.8357 16.4136 11.615 15.881L9.71866 16.6665L7.82228 17.452C7.73217 17.2345 7.70859 16.9951 7.75453 16.7641L9.76772 17.1646ZM9.71866 16.6665L11.615 15.881C11.3944 15.3484 11.0208 14.8932 10.5415 14.5729L9.40114 16.2796L8.26076 17.9863C8.06498 17.8555 7.91239 17.6695 7.82228 17.452L9.71866 16.6665ZM9.40114 16.2796L10.5415 14.5729C10.0622 14.2526 9.49867 14.0817 8.92218 14.0817V16.1343V18.1869C8.68671 18.1869 8.45653 18.1171 8.26076 17.9863L9.40114 16.2796ZM8.92218 19.5006L8.9242 17.448C8.80393 17.4479 8.68863 17.4 8.60359 17.315L7.15216 18.7664L5.70073 20.2179C6.55466 21.0718 7.71251 21.5521 8.92016 21.5532L8.92218 19.5006ZM7.15216 18.7664L8.60359 17.315C8.51854 17.23 8.47072 17.1146 8.4706 16.9944L6.41797 16.9964L4.36534 16.9984C4.36652 18.2061 4.84679 19.3639 5.70073 20.2179L7.15216 18.7664ZM6.41797 16.9964L8.4706 16.9984C8.47072 16.8781 8.51855 16.7628 8.60359 16.6778L7.15216 15.2264L5.70073 13.7749C4.84679 14.6289 4.36652 15.7867 4.36534 16.9944L6.41797 16.9964ZM7.15216 15.2264L8.60359 16.6778C8.68863 16.5928 8.80393 16.5449 8.9242 16.5448L8.92218 14.4922L8.92016 12.4396C7.71251 12.4407 6.55466 12.921 5.70073 13.7749L7.15216 15.2264ZM8.92218 14.4922L8.91949 16.5448C9.03973 16.545 9.155 16.5928 9.24001 16.6779L10.6917 15.2267L12.1433 13.7755C11.2897 12.9216 10.1323 12.4411 8.92487 12.4396L8.92218 14.4922ZM10.6917 15.2267L9.24001 16.6779C9.32501 16.7629 9.37282 16.8782 9.37294 16.9984L11.4256 16.9964L13.4782 16.9944C13.477 15.787 12.997 14.6294 12.1433 13.7755L10.6917 15.2267ZM11.4256 16.9964L9.37294 16.9944C9.37282 17.1146 9.32499 17.23 9.23995 17.315L10.6914 18.7664L12.1428 20.2179C12.9968 19.3639 13.477 18.2061 13.4782 16.9984L11.4256 16.9964ZM10.6914 18.7664L9.23995 17.315C9.15441 17.4005 9.03971 17.4479 8.92016 17.448L8.92218 19.5006L8.9242 21.5532C10.1326 21.5521 11.2894 21.0713 12.1428 20.2179L10.6914 18.7664Z" fill="#626262" mask="url(#path-5-inside-3_890_27449)"/>
</svg>
