<svg width="current" height="current" viewBox="0 0 22 22" fill="current" xmlns="http://www.w3.org/2000/svg">
    <path d="M11.1871 19C7.1629 19 3.84766 15.6848 3.84766 11.6537C3.84766 7.9353 6.67638 4.82161 10.2835 4.36985V3.62618C10.2835 3.11882 10.7005 2.72266 11.1871 2.72266C11.6875 2.72266 12.0906 3.11882 12.0906 3.62618V4.36985C13.5779 4.55751 14.9332 5.19692 16.0105 6.14215L16.5248 5.64869C16.7333 5.45408 16.9349 5.37068 17.2198 5.37068C17.7133 5.37068 18.0886 5.75294 18.0886 6.23945C18.0886 6.47576 17.9913 6.70511 17.7828 6.90667L17.2059 7.47659C18.0399 8.66507 18.5265 10.1107 18.5265 11.6537C18.5265 15.6848 15.2182 19 11.1871 19ZM11.1871 17.1721C14.2451 17.1721 16.7055 14.7117 16.6986 11.6537C16.6986 8.60252 14.2382 6.14215 11.1871 6.14215C8.12897 6.14215 5.68251 8.60252 5.68251 11.6537C5.68251 14.7117 8.13592 17.1721 11.1871 17.1721ZM11.1871 12.9881C10.4503 12.9881 9.85957 12.3904 9.85957 11.6606C9.85957 11.181 10.1167 10.7571 10.5129 10.5208V7.70594C10.5129 7.33063 10.8117 7.03872 11.1871 7.03872C11.5624 7.03872 11.8543 7.33063 11.8543 7.70594V10.5208C12.2574 10.7571 12.5145 11.1741 12.5145 11.6606C12.5145 12.3904 11.9238 12.9881 11.1871 12.9881Z" fill="current"/>
</svg>
