<svg width="current" height="current" viewBox="0 0 22 22" fill="current" xmlns="http://www.w3.org/2000/svg">
    <path d="M17.9159 16.4579C18.1096 16.6516 18.2184 16.9143 18.2184 17.1883C18.2184 17.4623 18.1096 17.7251 17.9159 17.9188C17.7221 18.1125 17.4594 18.2214 17.1854 18.2214C16.9114 18.2214 16.6486 18.1125 16.4549 17.9188L10.9987 12.4609L5.54085 17.9171C5.34712 18.1108 5.08436 18.2196 4.81038 18.2196C4.5364 18.2196 4.27365 18.1108 4.07991 17.9171C3.88618 17.7233 3.77734 17.4606 3.77734 17.1866C3.77734 16.9126 3.88618 16.6499 4.07991 16.4561L9.5378 11L4.08163 5.54208C3.8879 5.34834 3.77906 5.08559 3.77906 4.81161C3.77906 4.53763 3.8879 4.27487 4.08163 4.08114C4.27536 3.88741 4.53812 3.77857 4.8121 3.77857C5.08608 3.77857 5.34884 3.88741 5.54257 4.08114L10.9987 9.53903L16.4566 4.08028C16.6504 3.88655 16.9131 3.77771 17.1871 3.77771C17.4611 3.77771 17.7238 3.88655 17.9176 4.08028C18.1113 4.27401 18.2201 4.53677 18.2201 4.81075C18.2201 5.08473 18.1113 5.34749 17.9176 5.54122L12.4597 11L17.9159 16.4579Z" fill="current"/>
</svg>

