<svg width="current" height="current" viewBox="0 0 22 22" fill="current" xmlns="http://www.w3.org/2000/svg">
    <path fill-rule="evenodd" clip-rule="evenodd" d="M8.17997 11.0001C8.17997 9.25767 9.57869 7.84513 11.3041 7.84513C13.0295 7.84513 14.4282 9.25767 14.4282 11.0001C14.4282 12.7426 13.0295 14.1551 11.3041 14.1551C9.57869 14.1551 8.17997 12.7426 8.17997 11.0001ZM11.3041 9.36272C10.4086 9.36272 9.68271 10.0958 9.68271 11.0001C9.68271 11.9044 10.4086 12.6375 11.3041 12.6375C12.1996 12.6375 12.9255 11.9044 12.9255 11.0001C12.9255 10.0958 12.1996 9.36272 11.3041 9.36272Z" fill="current"/>
    <path fill-rule="evenodd" clip-rule="evenodd" d="M9.82605 2.98948C10.3058 2.89972 10.7999 2.85291 11.3041 2.85291C11.8084 2.85291 12.3024 2.89972 12.7822 2.98947C13.6058 3.14359 13.954 3.90195 14.0666 4.37421C14.1429 4.69392 14.3426 4.98017 14.6456 5.15687C14.9484 5.33341 15.2934 5.36503 15.6055 5.27214C16.0668 5.13483 16.8893 5.06111 17.4332 5.70226C18.0737 6.45742 18.5802 7.33297 18.9147 8.29126C19.1926 9.08776 18.7172 9.76999 18.369 10.1042C18.1329 10.3307 17.9873 10.6485 17.9873 11.0019C17.9873 11.355 18.1327 11.6727 18.3685 11.8992C18.7166 12.2335 19.1917 12.9159 18.9134 13.7123C18.5779 14.6721 18.0698 15.5489 17.4272 16.3047C16.8842 16.9433 16.0645 16.8709 15.6039 16.7346C15.2923 16.6424 14.9481 16.6742 14.6458 16.8504C14.3437 17.0266 14.1443 17.3116 14.0676 17.6302C13.9541 18.1012 13.6055 18.8562 12.7842 19.0101C12.3039 19.1001 11.8091 19.147 11.3041 19.147C10.7993 19.147 10.3046 19.1001 9.82437 19.0101C9.00283 18.8562 8.65428 18.1009 8.54088 17.6297C8.46418 17.311 8.26476 17.0258 7.96252 16.8496C7.66024 16.6734 7.31591 16.6416 7.00425 16.7339C6.54358 16.8703 5.72348 16.9429 5.18038 16.304C4.53849 15.5488 4.03082 14.6729 3.69544 13.7141C3.41694 12.9178 3.8918 12.2353 4.23978 11.9009C4.47543 11.6744 4.62079 11.3569 4.62079 11.0038C4.62079 10.6503 4.47508 10.3325 4.23892 10.106C3.89063 9.77187 3.41511 9.08981 3.69285 8.29329C4.02709 7.33472 4.53348 6.4589 5.17401 5.70348C5.71796 5.06196 6.54089 5.13583 7.0023 5.27326C7.31442 5.36623 7.65951 5.33463 7.96236 5.15805C8.26555 4.98128 8.4653 4.69483 8.54145 4.37494C8.65391 3.9025 9.00203 3.14365 9.82605 2.98948ZM10.1168 4.47851C10.1134 4.48207 10.1086 4.4875 10.1024 4.49547C10.0693 4.53839 10.029 4.61857 10.0026 4.72966C9.83412 5.4373 9.38836 6.07899 8.71374 6.47232C8.03987 6.86523 7.26766 6.93452 6.57718 6.72886C6.46884 6.69659 6.38004 6.6918 6.32665 6.69931C6.31648 6.70075 6.30928 6.70229 6.30446 6.70356C5.79142 7.31176 5.38567 8.01414 5.11605 8.78086C5.11738 8.78564 5.11962 8.79253 5.12337 8.80185C5.14357 8.85206 5.19202 8.92713 5.27384 9.00562C5.79627 9.50674 6.12354 10.2173 6.12354 11.0038C6.12354 11.7894 5.79707 12.4992 5.27575 13.0002C5.194 13.0788 5.14563 13.1539 5.12547 13.2041C5.12174 13.2134 5.1195 13.2203 5.11818 13.2251C5.38872 13.9921 5.79552 14.6945 6.30967 15.3025C6.31447 15.3038 6.32163 15.3053 6.33176 15.3068C6.38488 15.3143 6.47328 15.3096 6.58132 15.2776C7.27079 15.0734 8.04133 15.1432 8.7139 15.5353C9.38636 15.9274 9.83145 16.5663 10.0011 17.2713C10.0277 17.3819 10.068 17.4616 10.101 17.5043C10.1072 17.5122 10.112 17.5176 10.1154 17.5212C10.5004 17.5922 10.8976 17.6294 11.3041 17.6294C11.7107 17.6294 12.108 17.5922 12.4931 17.5211C12.4966 17.5176 12.5014 17.5122 12.5075 17.5042C12.5405 17.4616 12.5808 17.382 12.6074 17.2713C12.7772 16.5667 13.2222 15.9281 13.8945 15.5361C14.5669 15.1441 15.3372 15.0742 16.0265 15.2783C16.1345 15.3102 16.2229 15.3149 16.276 15.3074C16.2861 15.3059 16.2933 15.3044 16.2981 15.3031C16.8128 14.6946 17.2199 13.9914 17.4905 13.2237C17.4892 13.2189 17.487 13.212 17.4832 13.2027C17.4631 13.1525 17.4147 13.0773 17.3329 12.9988C16.8112 12.4977 16.4845 11.7877 16.4845 11.0019C16.4845 10.2155 16.8116 9.50513 17.3338 9.00402C17.4156 8.92552 17.4641 8.85043 17.4843 8.80021C17.488 8.79089 17.4903 8.78399 17.4916 8.77921C17.2218 8.01271 16.816 7.31055 16.3029 6.70256C16.2981 6.70129 16.2909 6.69974 16.2807 6.69831C16.2274 6.6908 16.1386 6.69558 16.0303 6.72781C15.34 6.9333 14.568 6.86395 13.8943 6.47114C13.22 6.07799 12.7743 5.43672 12.6057 4.72948C12.5792 4.61845 12.5389 4.53834 12.5058 4.49546C12.4996 4.48749 12.4948 4.48206 12.4914 4.47851C12.1068 4.40762 11.7101 4.37049 11.3041 4.37049C10.8981 4.37049 10.5014 4.40762 10.1168 4.47851ZM17.4934 8.77062L17.4932 8.77233ZM17.4923 13.2323L17.4921 13.2306ZM5.11639 13.2337L5.11658 13.232ZM5.11426 8.77227L5.11445 8.77399Z" fill="current"/>
</svg>
