<svg width="current" height="current" viewBox="0 0 22 22" fill="current" xmlns="http://www.w3.org/2000/svg">
    <path d="M8.6078 9.5362C8.7533 9.45994 8.92543 9.45994 9.07093 9.5362C9.2029 9.60536 9.26788 9.72734 9.29623 9.78307C9.32832 9.84617 9.36091 9.92692 9.39309 10.0066L9.75821 10.9109L10.7059 10.9892C10.7895 10.9961 10.8741 11.003 10.9423 11.015C11.0025 11.0255 11.1352 11.0515 11.2399 11.1594C11.3552 11.2784 11.4084 11.447 11.383 11.6131C11.3599 11.7638 11.2674 11.8651 11.2247 11.9101C11.1763 11.961 11.1118 12.0179 11.0482 12.0741L10.3261 12.7112L10.5467 13.6638C10.5662 13.7478 10.5859 13.8329 10.5959 13.9033C10.6048 13.9656 10.6218 14.1036 10.5545 14.2395C10.4803 14.3893 10.3411 14.4935 10.1798 14.5199C10.0336 14.5438 9.91143 14.4845 9.85669 14.4566C9.79472 14.425 9.72229 14.3794 9.65077 14.3344L8.83936 13.8239L8.02799 14.3343C7.95646 14.3794 7.884 14.425 7.82204 14.4566C7.7673 14.4845 7.64512 14.5438 7.49889 14.5199C7.33766 14.4935 7.19841 14.3893 7.12421 14.2395C7.05691 14.1036 7.07394 13.9656 7.08281 13.9033C7.09285 13.8329 7.11257 13.7478 7.13203 13.6638L7.35263 12.7112L6.63057 12.0741C6.5669 12.0179 6.50241 11.961 6.45407 11.9101C6.41137 11.8651 6.31883 11.7638 6.29575 11.6131C6.27031 11.447 6.3235 11.2784 6.43887 11.1594C6.5435 11.0515 6.67621 11.0255 6.73643 11.015C6.8046 11.003 6.88924 10.9961 6.97279 10.9892L7.92051 10.9109L8.28563 10.0067C8.31781 9.92693 8.3504 9.84617 8.38249 9.78307C8.41085 9.72734 8.47583 9.60536 8.6078 9.5362Z" fill="current"/>
    <path fill-rule="evenodd" clip-rule="evenodd" d="M8.35379 4.04796C8.12535 3.99967 7.89303 3.99983 7.61787 4.00002L6.4159 4.00005C5.99962 4.00004 5.64516 4.00003 5.35414 4.02452C5.0484 4.05025 4.75097 4.1066 4.46663 4.25584C4.03794 4.48083 3.6894 4.83985 3.47097 5.28143C3.32609 5.57432 3.27138 5.8807 3.2464 6.19563C3.22263 6.49538 3.22263 6.86053 3.22264 7.28931V14.7108C3.22263 15.1396 3.22263 15.5047 3.2464 15.8044C3.27138 16.1194 3.32609 16.4257 3.47097 16.7186C3.6894 17.1602 4.03794 17.5192 4.46663 17.7442C4.75097 17.8934 5.0484 17.9498 5.35414 17.9755C5.64515 18 5.99962 18 6.41588 18H15.5848C16.0011 18 16.3555 18 16.6465 17.9755C16.9523 17.9498 17.2497 17.8934 17.5341 17.7442C17.9627 17.5192 18.3113 17.1602 18.5297 16.7186C18.6746 16.4257 18.7293 16.1194 18.7543 15.8044C18.7781 15.5047 18.778 15.1395 18.778 14.7108V8.90777C18.778 8.47899 18.7781 8.11388 18.7543 7.81412C18.7293 7.49919 18.6746 7.19281 18.5297 6.89992C18.3113 6.45834 17.9627 6.09932 17.5341 5.87433C17.2497 5.72509 16.9523 5.66874 16.6465 5.64301C16.3555 5.61852 16.0011 5.61853 15.5848 5.61854L10.659 5.61854L9.536 4.6931C9.32126 4.51589 9.13994 4.36627 8.93227 4.25699C8.74947 4.16079 8.55488 4.09048 8.35379 4.04796ZM5.23393 5.50018C5.33726 5.4656 5.48954 5.45661 6.12948 5.45661H7.6753C7.91182 5.45661 7.96511 5.45814 8.01203 5.4647C8.12799 5.48092 8.23954 5.52123 8.33992 5.58318C8.38055 5.60825 8.42308 5.64134 8.60778 5.79354L9.9693 6.91551C10.0947 7.01882 10.2504 7.0751 10.411 7.0751H15.8712C16.5112 7.0751 16.6635 7.08409 16.7668 7.11867C17.0299 7.20673 17.2362 7.41919 17.3216 7.6902C17.3552 7.79663 17.3639 7.95349 17.3639 8.61267V15.0057C17.3639 15.6649 17.3552 15.8218 17.3216 15.9282C17.2362 16.1992 17.0299 16.4117 16.7668 16.4997C16.6635 16.5343 16.5112 16.5433 15.8712 16.5433H6.12948C5.48954 16.5433 5.33726 16.5343 5.23393 16.4997C4.97084 16.4117 4.76457 16.1992 4.67909 15.9282C4.64551 15.8218 4.63679 15.6649 4.63679 15.0057V6.99418C4.63679 6.335 4.64551 6.17814 4.67909 6.0717C4.76457 5.8007 4.97084 5.58823 5.23393 5.50018Z" fill="current"/>
</svg>

