<svg width="current" height="current" viewBox="0 0 22 22" fill="current" xmlns="http://www.w3.org/2000/svg">
    <path fill-rule="evenodd" clip-rule="evenodd" d="M11.2137 3.89514C11.0359 3.84762 10.8487 3.84762 10.6708 3.89514C10.46 3.95149 10.2851 4.08802 10.1931 4.15993L10.1667 4.18036L5.03502 8.10454C4.74452 8.32626 4.49957 8.51322 4.31726 8.75677C4.15707 8.97077 4.03765 9.21243 3.96496 9.46968C3.88224 9.76244 3.88252 10.0706 3.88285 10.436L3.8829 15.2041C3.88289 15.602 3.88288 15.9408 3.90561 16.219C3.92948 16.5113 3.98178 16.7956 4.12027 17.0674C4.32908 17.4772 4.66225 17.8104 5.07205 18.0192C5.34386 18.1577 5.62818 18.21 5.92044 18.2339C6.19862 18.2566 6.53744 18.2566 6.93535 18.2566H10.9345C10.9372 18.2566 10.9398 18.2566 10.9425 18.2566C10.9451 18.2566 10.9478 18.2566 10.9504 18.2566H14.9491C15.347 18.2566 15.6859 18.2566 15.9641 18.2339C16.2563 18.21 16.5407 18.1577 16.8125 18.0192C17.2223 17.8104 17.5554 17.4772 17.7642 17.0674C17.9027 16.7956 17.955 16.5113 17.9789 16.219C18.0016 15.9408 18.0016 15.602 18.0016 15.2041L18.0017 10.436C18.002 10.0706 18.0023 9.76244 17.9196 9.46968C17.8469 9.21243 17.7274 8.97077 17.5673 8.75677C17.385 8.51322 17.14 8.32626 16.8495 8.10454L11.7178 4.18036L11.6915 4.15993C11.5994 4.08802 11.4246 3.95149 11.2137 3.89514ZM11.6184 16.9047H15.2229C15.8347 16.9047 15.9802 16.8963 16.079 16.8642C16.3305 16.7825 16.5277 16.5853 16.6094 16.3338C16.6415 16.2351 16.6498 16.0895 16.6498 15.4778V10.3587C16.6498 10.0431 16.6472 9.97136 16.636 9.91096C16.6081 9.76089 16.5392 9.62148 16.4369 9.50819C16.3957 9.46259 16.3404 9.41691 16.0897 9.2252L10.9423 5.28894L5.79483 9.2252C5.54413 9.41691 5.48878 9.46259 5.44762 9.50819C5.34534 9.62148 5.27644 9.76089 5.24858 9.91096C5.23737 9.97136 5.2347 10.0431 5.2347 10.3587V15.4778C5.2347 16.0895 5.24304 16.2351 5.27513 16.3338C5.35684 16.5853 5.55402 16.7825 5.80552 16.8642C5.90429 16.8963 6.04986 16.9047 6.66159 16.9047H10.2666V12.6992C10.2666 12.3259 10.5692 12.0233 10.9425 12.0233C11.3158 12.0233 11.6184 12.3259 11.6184 12.6992V16.9047Z" fill="current"/>
</svg>
