<svg width="130" height="170" viewBox="0 0 130 170" fill="none" xmlns="http://www.w3.org/2000/svg">
<path d="M102.83 111.215C104.001 111.215 105.074 110.922 105.952 110.337C106.781 109.752 107.22 108.874 107.22 107.703C107.22 106.679 106.781 105.85 106.001 105.167C105.172 104.533 104.099 104.191 102.83 104.191C101.465 104.191 100.44 104.533 99.66 105.167C98.8308 105.85 98.4405 106.679 98.4405 107.703C98.4405 108.874 98.8308 109.752 99.7087 110.337C100.538 110.922 101.562 111.215 102.83 111.215ZM102.83 118.678C98.782 118.678 95.6602 117.702 93.4653 115.751C91.2215 113.8 90.1484 111.117 90.1484 107.703C90.1484 104.386 91.2215 101.752 93.4653 99.7036C95.6602 97.7038 98.782 96.6794 102.83 96.6794C106.83 96.6794 109.952 97.7038 112.196 99.7036C114.391 101.752 115.513 104.386 115.513 107.703C115.513 111.117 114.391 113.8 112.196 115.751C109.952 117.702 106.83 118.678 102.83 118.678ZM118.976 122.873V97.1672H127.512V122.873H118.976ZM90.3923 130.287C94.7823 129.604 98.3918 128.482 101.123 126.97C103.806 125.507 105.513 123.556 106.294 121.214L106.391 120.58H115.513V121.117C115.366 122.287 115.122 123.409 114.732 124.482C115.561 124.629 116.391 124.775 117.171 124.921C118.537 125.263 119.902 125.653 121.268 126.141C122.634 126.629 124 127.165 125.463 127.848C126.829 128.531 128.341 129.36 129.999 130.287L125.902 137.36C123.171 135.701 120.537 134.335 118 133.262C115.513 132.287 112.879 131.506 110.001 131.019C109.757 131.214 109.513 131.409 109.318 131.555C105.611 134.384 100.294 136.238 93.3677 137.116L90.3923 130.287Z" fill="#3F3F3F"/>
<path d="M59.4122 111.898V103.655H55.0222V111.898H59.4122ZM47.2179 103.655H44.779V97.3141H69.7041V103.655H67.2165V111.898H69.7041V118.239H44.779V111.898H47.2179V103.655ZM87.1663 104.875V113.313C86.7761 113.313 86.2884 113.362 85.7518 113.362C85.1665 113.411 84.5812 113.459 84.0446 113.557C83.4593 113.654 82.9227 113.703 82.435 113.801C82.0935 113.898 81.8496 113.996 81.6545 114.093V122.873H73.1185V97.1677H81.6545V105.996C82.1911 105.655 82.8252 105.411 83.6544 105.167C84.5324 104.972 85.703 104.875 87.1663 104.875ZM44.5352 130.287C48.9251 129.604 52.5346 128.483 55.2661 126.971C57.9489 125.507 59.6561 123.556 60.4365 121.215L60.534 120.581H69.6554V121.117C69.509 122.288 69.2651 123.41 68.8749 124.483C69.7041 124.629 70.5333 124.776 71.3138 124.922C72.6795 125.263 74.0453 125.654 75.4111 126.141C76.7768 126.629 78.1426 127.166 79.6059 127.849C80.9717 128.531 82.4837 129.361 84.1422 130.287L80.0449 137.36C77.3134 135.702 74.6794 134.336 72.143 133.263C69.6554 132.287 67.0214 131.507 64.1436 131.019C63.8997 131.214 63.6558 131.409 63.4607 131.556C59.7536 134.385 54.4369 136.238 47.5106 137.116L44.5352 130.287Z" fill="#3F3F3F"/>
<path d="M0.390217 117.166C5.26793 114.776 9.12132 111.947 12.0479 108.63C14.9258 105.362 16.4867 101.655 16.6818 97.5579H25.8031C25.7055 100.241 25.2665 102.777 24.3886 105.167C27.364 106.826 30.0955 108.533 32.4855 110.386C34.8756 112.289 37.412 114.581 40.046 117.313L34.2903 123.849C32.0466 121.312 29.6565 119.02 27.0713 116.971C24.7788 115.313 22.535 113.801 20.2425 112.532L19.6572 113.264C17.8036 115.508 15.6575 117.556 13.2186 119.361C10.731 121.215 8.097 122.727 5.3167 123.995L0.390217 117.166ZM0 135.848V128.044H40.3387V135.848H0Z" fill="#3F3F3F"/>
<path d="M102.255 147.749H106.523V159.773H102.255V147.749ZM102.23 161.943H106.498V166.724H102.23V161.943Z" fill="#3F3F3F"/>
<path d="M96.8634 160.651C96.8634 161.171 96.9041 161.562 96.9853 161.822C97.0666 162.082 97.2455 162.261 97.5219 162.358C97.7007 162.423 97.8877 162.448 98.0828 162.431C98.2942 162.415 98.595 162.334 98.9852 162.188L99.6925 165.919C99.0584 166.212 98.2861 166.399 97.3756 166.48C96.4651 166.561 95.6521 166.456 94.9367 166.163C94.0912 165.821 93.4978 165.269 93.1563 164.504C92.8149 163.74 92.6442 162.716 92.6442 161.431V156.676H90.4492V152.871H92.6442V148.188H96.8634V152.871H99.5949V156.676H96.8634V160.651Z" fill="#3F3F3F"/>
<path d="M84.4766 152.871H88.6958V166.285H84.4766V152.871ZM88.6958 151.457H84.4766V148.188H88.6958V151.457Z" fill="#3F3F3F"/>
<path d="M73.2853 160.651C73.2853 161.171 73.3259 161.562 73.4072 161.822C73.4885 162.082 73.6674 162.261 73.9438 162.358C74.1226 162.423 74.3096 162.448 74.5047 162.431C74.7161 162.415 75.0169 162.334 75.4071 162.188L76.1144 165.919C75.4803 166.212 74.7079 166.399 73.7974 166.48C72.8869 166.561 72.074 166.456 71.3586 166.163C70.5131 165.821 69.9197 165.269 69.5782 164.504C69.2368 163.74 69.0661 162.716 69.0661 161.431V156.676H66.8711V152.871H69.0661V148.188H73.2853V152.871H76.0168V156.676H73.2853V160.651Z" fill="#3F3F3F"/>
<path d="M58.1536 162.748C58.9665 162.748 59.69 162.488 60.3241 161.967C60.9582 161.431 61.2753 160.626 61.2753 159.553C61.2753 158.529 60.9582 157.74 60.3241 157.187C59.69 156.634 58.9665 156.358 58.1536 156.358C57.3569 156.358 56.6496 156.634 56.0318 157.187C55.4302 157.74 55.1294 158.529 55.1294 159.553C55.1294 160.626 55.4302 161.431 56.0318 161.967C56.6496 162.488 57.3569 162.748 58.1536 162.748ZM58.2023 166.601C57.1292 166.601 56.1456 166.439 55.2513 166.113C54.3571 165.772 53.5848 165.292 52.9344 164.675C52.3003 164.057 51.8044 163.317 51.4467 162.455C51.089 161.593 50.9102 160.626 50.9102 159.553C50.9102 158.464 51.0971 157.48 51.4711 156.602C51.8613 155.724 52.3897 154.984 53.0563 154.383C53.7067 153.781 54.4709 153.318 55.3489 152.992C56.2431 152.667 57.1943 152.505 58.2023 152.505C59.1941 152.505 60.129 152.667 61.007 152.992C61.9013 153.318 62.6817 153.781 63.3483 154.383C63.9987 154.984 64.519 155.724 64.9092 156.602C65.2994 157.48 65.4945 158.464 65.4945 159.553C65.4945 160.626 65.3075 161.593 64.9336 162.455C64.5759 163.317 64.08 164.057 63.4459 164.675C62.7955 165.292 62.0232 165.772 61.129 166.113C60.2347 166.439 59.2592 166.601 58.2023 166.601Z" fill="#3F3F3F"/>
<path d="M42.7566 166.48C42.0575 166.48 41.399 166.358 40.7811 166.114C40.1633 165.87 39.6593 165.529 39.2691 165.09V169.333H35.0742V152.871H39.2691V154.066C39.6105 153.676 40.0901 153.351 40.708 153.09C41.3421 152.83 42.0656 152.684 42.8786 152.651C43.7565 152.635 44.5695 152.781 45.3174 153.09C46.0816 153.383 46.7482 153.822 47.3173 154.407C47.8701 155.009 48.3009 155.757 48.6099 156.651C48.935 157.529 49.1058 158.537 49.122 159.675C49.1383 160.862 48.9838 161.886 48.6586 162.748C48.3335 163.61 47.8863 164.317 47.3173 164.87C46.7319 165.423 46.0491 165.829 45.2686 166.089C44.4882 166.35 43.6509 166.48 42.7566 166.48ZM42.0493 162.748C42.407 162.781 42.7647 162.748 43.1224 162.651C43.4801 162.537 43.7972 162.358 44.0736 162.114C44.3663 161.87 44.5939 161.537 44.7565 161.114C44.9353 160.691 45.0247 160.171 45.0247 159.553C45.0247 159.001 44.9353 158.529 44.7565 158.139C44.5939 157.732 44.3825 157.399 44.1224 157.139C43.8622 156.879 43.5614 156.692 43.22 156.578C42.8948 156.448 42.5696 156.383 42.2445 156.383C41.4152 156.383 40.7324 156.708 40.1958 157.358C39.6755 158.009 39.4154 158.87 39.4154 159.944C39.4154 160.659 39.6593 161.293 40.147 161.846C40.6511 162.399 41.2852 162.699 42.0493 162.748Z" fill="#3F3F3F"/>
<path d="M30.0144 166.504C29.364 166.699 28.6405 166.789 27.8438 166.772C27.0633 166.756 26.2179 166.675 25.3074 166.528C24.6733 166.415 24.0066 166.203 23.3075 165.894C22.6246 165.585 21.9661 165.211 21.332 164.772L23.0392 161.456C23.8197 161.878 24.5838 162.236 25.3318 162.529C26.0797 162.805 26.8113 162.992 27.5267 163.09C27.7381 163.138 27.9088 163.122 28.0389 163.041C28.1852 162.943 28.2746 162.821 28.3072 162.675C28.3397 162.529 28.3153 162.382 28.234 162.236C28.1527 162.073 28.0145 161.943 27.8194 161.846C27.543 161.732 27.2503 161.618 26.9414 161.504C26.6487 161.391 26.3317 161.269 25.9902 161.139C25.6488 161.008 25.283 160.862 24.8928 160.7C24.5025 160.521 24.1042 160.301 23.6977 160.041C22.8848 159.553 22.3076 158.854 21.9661 157.944C21.641 157.033 21.6897 156.09 22.1125 155.115C22.4051 154.318 22.9335 153.676 23.6977 153.188C24.4782 152.684 25.5513 152.407 26.917 152.359C27.9901 152.326 28.9982 152.472 29.9412 152.798C30.9005 153.123 31.8435 153.635 32.7703 154.334L30.5753 157.383C29.8924 156.976 29.2746 156.684 28.7218 156.505C28.1852 156.31 27.6649 156.188 27.1609 156.139C27.0146 156.123 26.8845 156.163 26.7707 156.261C26.6731 156.358 26.6081 156.472 26.5756 156.602C26.5431 156.732 26.5431 156.871 26.5756 157.017C26.6243 157.163 26.7219 157.269 26.8682 157.334C27.1121 157.48 27.3804 157.61 27.6731 157.724C27.982 157.838 28.299 157.952 28.6242 158.066C28.9494 158.196 29.2827 158.326 29.6241 158.456C29.9818 158.586 30.3314 158.74 30.6728 158.919C31.5671 159.391 32.2175 159.984 32.6239 160.7C33.0467 161.415 33.193 162.236 33.0629 163.163C32.9491 164.09 32.6158 164.821 32.063 165.358C31.5264 165.878 30.8436 166.26 30.0144 166.504Z" fill="#3F3F3F"/>
<path d="M54.3311 37.2146C56.7316 40.526 60.6305 42.6804 65.0332 42.6804C69.3918 42.6804 73.256 40.5684 75.6621 37.3132C78.2814 37.9161 80.8527 38.7349 83.3477 39.7683C89.2346 42.2068 94.5841 45.7812 99.0898 50.2869C103.596 54.7926 107.17 60.142 109.608 66.0291C111.397 70.348 112.549 74.8945 113.036 79.5261C113.329 82.3169 111.027 84.5984 108.221 84.5984H21.3369C18.5308 84.5984 16.2282 82.3169 16.5215 79.5261C17.0083 74.8945 18.1603 70.348 19.9492 66.0291C22.3877 60.142 25.962 54.7926 30.4678 50.2869C34.9736 45.7811 40.3229 42.2068 46.21 39.7683C48.843 38.6777 51.5611 37.8254 54.3311 37.2146Z" fill="#FEA31F"/>
<path d="M94.4575 84.5981C94.4575 80.6979 93.6893 76.836 92.1968 73.2326C90.7042 69.6293 88.5166 66.3553 85.7587 63.5975C83.0009 60.8396 79.7268 58.652 76.1235 57.1594C72.5202 55.6669 68.6582 54.8987 64.758 54.8987C60.8579 54.8987 56.9959 55.6669 53.3926 57.1594C49.7893 58.652 46.5152 60.8396 43.7574 63.5975C40.9995 66.3553 38.8119 69.6293 37.3193 73.2326C35.8268 76.836 35.0586 80.698 35.0586 84.5981L64.758 84.5981H94.4575Z" fill="#FFE8C7"/>
<path fill-rule="evenodd" clip-rule="evenodd" d="M62.7296 76.205C62.7296 76.205 35.5664 51.8004 35.5664 29.5622C35.5664 21.7218 38.6712 14.2026 44.1978 8.65857C49.7244 3.11458 57.2201 0 65.0359 0C72.8517 0 80.3474 3.11458 85.874 8.65857C91.4006 14.2026 94.5054 21.7218 94.5054 29.5622C94.5054 51.8004 68.1667 76.205 68.1667 76.205C66.6785 77.5796 64.2289 77.5648 62.7296 76.205ZM65.0359 42.4957C66.729 42.4957 68.4056 42.1611 69.9698 41.5112C71.534 40.8612 72.9553 39.9085 74.1526 38.7075C75.3498 37.5066 76.2995 36.0808 76.9474 34.5116C77.5953 32.9425 77.9288 31.2606 77.9288 29.5622C77.9288 27.8638 77.5953 26.1819 76.9474 24.6128C76.2995 23.0436 75.3498 21.6178 74.1526 20.4169C72.9553 19.2159 71.534 18.2632 69.9698 17.6132C68.4056 16.9633 66.729 16.6287 65.0359 16.6287C61.6165 16.6287 58.3371 17.9914 55.9192 20.4169C53.5014 22.8424 52.143 26.132 52.143 29.5622C52.143 32.9924 53.5014 36.282 55.9192 38.7075C58.3371 41.133 61.6165 42.4957 65.0359 42.4957Z" fill="url(#paint0_linear_2013_40661)"/>
<defs>
<linearGradient id="paint0_linear_2013_40661" x1="65.0359" y1="0" x2="65.0359" y2="77.2304" gradientUnits="userSpaceOnUse">
<stop stop-color="#FE6731"/>
<stop offset="1" stop-color="#FE6731"/>
</linearGradient>
</defs>
</svg>
