<svg width="112" height="46" viewBox="0 0 112 46" fill="none" xmlns="http://www.w3.org/2000/svg">
<path d="M108.337 14.001H111.339V22.4561H108.337V14.001ZM108.32 23.9825H111.322V27.3439H108.32V23.9825Z" fill="#FEA31F"/>
<path d="M104.546 23.0722C104.546 23.438 104.574 23.7124 104.631 23.8954C104.689 24.0783 104.814 24.2041 105.009 24.2727C105.135 24.3184 105.266 24.3356 105.403 24.3241C105.552 24.3127 105.763 24.2555 106.038 24.1526L106.535 26.7766C106.089 26.9824 105.546 27.1139 104.906 27.1711C104.266 27.2283 103.694 27.1539 103.191 26.9481C102.596 26.708 102.179 26.3193 101.939 25.7819C101.699 25.2445 101.579 24.5242 101.579 23.621V20.2767H100.035V17.6012H101.579V14.3083H104.546V17.6012H106.467V20.2767H104.546V23.0722Z" fill="#FEA31F"/>
<path d="M95.8359 17.6012H98.8029V27.0339H95.8359V17.6012ZM98.8029 16.6065H95.8359V14.3083H98.8029V16.6065Z" fill="#FEA31F"/>
<path d="M87.9637 23.0722C87.9637 23.438 87.9922 23.7124 88.0494 23.8954C88.1066 24.0783 88.2323 24.2041 88.4267 24.2727C88.5525 24.3184 88.684 24.3356 88.8212 24.3241C88.9698 24.3127 89.1813 24.2555 89.4557 24.1526L89.9531 26.7766C89.5072 26.9824 88.9641 27.1139 88.3238 27.1711C87.6835 27.2283 87.1119 27.1539 86.6088 26.9481C86.0142 26.708 85.5969 26.3193 85.3568 25.7819C85.1167 25.2445 84.9967 24.5242 84.9967 23.621V20.2767H83.4531V17.6012H84.9967V14.3083H87.9637V17.6012H89.8845V20.2767H87.9637V23.0722Z" fill="#FEA31F"/>
<path d="M77.3241 24.5469C77.8958 24.5469 78.4046 24.3639 78.8505 23.9981C79.2964 23.6208 79.5194 23.0548 79.5194 22.3002C79.5194 21.5799 79.2964 21.0254 78.8505 20.6366C78.4046 20.2479 77.8958 20.0535 77.3241 20.0535C76.7639 20.0535 76.2665 20.2479 75.832 20.6366C75.409 21.0254 75.1975 21.5799 75.1975 22.3002C75.1975 23.0548 75.409 23.6208 75.832 23.9981C76.2665 24.3639 76.7639 24.5469 77.3241 24.5469ZM77.3584 27.2566C76.6038 27.2566 75.9121 27.1423 75.2832 26.9136C74.6544 26.6735 74.1113 26.3362 73.6539 25.9018C73.208 25.4673 72.8593 24.9471 72.6078 24.3411C72.3562 23.7351 72.2305 23.0548 72.2305 22.3002C72.2305 21.5341 72.362 20.8424 72.6249 20.225C72.8993 19.6076 73.2709 19.0874 73.7397 18.6643C74.197 18.2413 74.7344 17.9154 75.3518 17.6868C75.9807 17.4581 76.6495 17.3438 77.3584 17.3438C78.0559 17.3438 78.7133 17.4581 79.3307 17.6868C79.9595 17.9154 80.5084 18.2413 80.9771 18.6643C81.4345 19.0874 81.8003 19.6076 82.0748 20.225C82.3492 20.8424 82.4864 21.5341 82.4864 22.3002C82.4864 23.0548 82.3549 23.7351 82.0919 24.3411C81.8404 24.9471 81.4916 25.4673 81.0457 25.9018C80.5884 26.3362 80.0453 26.6735 79.4165 26.9136C78.7876 27.1423 78.1016 27.2566 77.3584 27.2566Z" fill="#FEA31F"/>
<path d="M66.4961 27.1721C66.0045 27.1721 65.5414 27.0864 65.1069 26.9149C64.6725 26.7434 64.318 26.5032 64.0436 26.1945V29.1787H61.0938V17.6022H64.0436V18.4426C64.2837 18.1682 64.621 17.9395 65.0555 17.7566C65.5014 17.5736 66.0102 17.4707 66.5819 17.4479C67.1993 17.4364 67.7709 17.5393 68.2969 17.7566C68.8343 17.9624 69.303 18.2711 69.7032 18.6827C70.092 19.1057 70.3949 19.6317 70.6122 20.2605C70.8408 20.8779 70.9609 21.5868 70.9723 22.3872C70.9838 23.2218 70.8751 23.9421 70.6465 24.5481C70.4178 25.1541 70.1034 25.6514 69.7032 26.0402C69.2916 26.4289 68.8114 26.7148 68.2626 26.8977C67.7138 27.0806 67.1249 27.1721 66.4961 27.1721ZM65.9987 24.5481C66.2503 24.571 66.5018 24.5481 66.7534 24.4795C67.0049 24.3995 67.2278 24.2737 67.4222 24.1022C67.628 23.9307 67.7881 23.6963 67.9024 23.399C68.0282 23.1018 68.0911 22.7359 68.0911 22.3014C68.0911 21.9127 68.0282 21.5811 67.9024 21.3067C67.7881 21.0209 67.6395 20.7865 67.4565 20.6035C67.2736 20.4206 67.0621 20.2891 66.822 20.2091C66.5933 20.1176 66.3646 20.0719 66.1359 20.0719C65.5528 20.0719 65.0726 20.3005 64.6953 20.7579C64.3294 21.2152 64.1465 21.8212 64.1465 22.5758C64.1465 23.0789 64.318 23.5248 64.661 23.9135C65.0155 24.3023 65.4614 24.5138 65.9987 24.5481Z" fill="#FEA31F"/>
<path d="M57.5352 27.1886C57.0779 27.3258 56.5691 27.3887 56.0088 27.3772C55.46 27.3658 54.8655 27.3086 54.2252 27.2057C53.7793 27.1257 53.3105 26.9771 52.8189 26.7598C52.3387 26.5426 51.8756 26.2796 51.4297 25.9709L52.6302 23.6385C53.179 23.9357 53.7164 24.1873 54.2423 24.3931C54.7683 24.5875 55.2828 24.7189 55.7859 24.7875C55.9345 24.8218 56.0546 24.8104 56.146 24.7532C56.2489 24.6846 56.3118 24.5989 56.3347 24.496C56.3575 24.3931 56.3404 24.2902 56.2832 24.1873C56.2261 24.0729 56.1289 23.9815 55.9917 23.9129C55.7973 23.8328 55.5915 23.7528 55.3743 23.6728C55.1685 23.5927 54.9455 23.507 54.7054 23.4155C54.4653 23.324 54.208 23.2211 53.9336 23.1068C53.6592 22.981 53.3791 22.8267 53.0933 22.6438C52.5216 22.3007 52.1157 21.8091 51.8756 21.1688C51.6469 20.5285 51.6812 19.8654 51.9785 19.1794C52.1843 18.6191 52.5559 18.1675 53.0933 17.8245C53.6421 17.4701 54.3967 17.2757 55.3571 17.2414C56.1117 17.2185 56.8206 17.3214 57.4837 17.5501C58.1583 17.7788 58.8215 18.1389 59.4732 18.6306L57.9297 20.7744C57.4494 20.4885 57.015 20.2827 56.6262 20.157C56.2489 20.0198 55.8831 19.934 55.5286 19.8997C55.4257 19.8883 55.3342 19.9168 55.2542 19.9855C55.1856 20.0541 55.1399 20.1341 55.117 20.2256C55.0941 20.317 55.0941 20.4142 55.117 20.5171C55.1513 20.62 55.2199 20.6943 55.3228 20.7401C55.4943 20.843 55.683 20.9344 55.8888 21.0145C56.106 21.0945 56.329 21.1745 56.5576 21.2546C56.7863 21.346 57.0207 21.4375 57.2608 21.529C57.5123 21.6204 57.7582 21.7291 57.9983 21.8548C58.6271 22.1864 59.0844 22.6037 59.3703 23.1068C59.6676 23.6099 59.7705 24.1873 59.679 24.839C59.599 25.4907 59.3646 26.0052 58.9758 26.3825C58.5985 26.7484 58.1183 27.0171 57.5352 27.1886Z" fill="#FEA31F"/>
<g filter="url(#filter0_d_1994_34069)">
<rect x="5" y="4" width="36" height="36" rx="6.85161" fill="white"/>
</g>
<path d="M20.5225 19.5862C21.0784 20.3507 21.9775 20.8499 22.9951 20.8499C24.0023 20.8497 24.8921 20.36 25.4492 19.6086C26.0573 19.7483 26.6552 19.9361 27.2344 20.176C28.5969 20.7405 29.835 21.5678 30.8779 22.6106C31.921 23.6537 32.749 24.8923 33.3135 26.2551C33.7276 27.255 33.9938 28.3079 34.1064 29.3801C34.1742 30.026 33.6417 30.5539 32.9922 30.554H12.8779C12.2286 30.5537 11.696 30.0259 11.7637 29.3801C11.8764 28.3079 12.1435 27.255 12.5576 26.2551C13.1221 24.8923 13.9492 23.6536 14.9922 22.6106C16.0352 21.5676 17.2739 20.7405 18.6367 20.176C19.2479 19.9229 19.8794 19.7276 20.5225 19.5862Z" fill="#FFBE5F"/>
<path d="M29.8056 30.5527C29.8056 29.6498 29.6277 28.7557 29.2822 27.9216C28.9367 27.0874 28.4302 26.3295 27.7918 25.691C27.1533 25.0526 26.3954 24.5461 25.5612 24.2006C24.7271 23.8551 23.833 23.6772 22.9301 23.6772C22.0272 23.6772 21.1332 23.8551 20.299 24.2006C19.4648 24.5461 18.7069 25.0526 18.0685 25.691C17.43 26.3295 16.9236 27.0874 16.578 27.9216C16.2325 28.7557 16.0547 29.6498 16.0547 30.5527L22.9301 30.5527H29.8056Z" fill="#FFE8C7"/>
<path fill-rule="evenodd" clip-rule="evenodd" d="M22.4602 28.6095C22.4602 28.6095 16.1719 22.9598 16.1719 17.8117C16.1719 15.9966 16.8906 14.2559 18.1701 12.9725C19.4495 11.689 21.1847 10.968 22.9941 10.968C24.8034 10.968 26.5387 11.689 27.8181 12.9725C29.0975 14.2559 29.8163 15.9966 29.8163 17.8117C29.8163 22.9598 23.7189 28.6095 23.7189 28.6095C23.3743 28.9277 22.8072 28.9243 22.4602 28.6095ZM22.9941 20.8058C23.386 20.8058 23.7742 20.7283 24.1363 20.5779C24.4984 20.4274 24.8274 20.2069 25.1046 19.9288C25.3817 19.6508 25.6016 19.3207 25.7516 18.9575C25.9016 18.5942 25.9788 18.2049 25.9788 17.8117C25.9788 17.4185 25.9016 17.0291 25.7516 16.6659C25.6016 16.3026 25.3817 15.9726 25.1046 15.6945C24.8274 15.4165 24.4984 15.196 24.1363 15.0455C23.7742 14.895 23.386 14.8176 22.9941 14.8176C22.2025 14.8176 21.4433 15.133 20.8836 15.6945C20.3238 16.256 20.0094 17.0176 20.0094 17.8117C20.0094 18.6058 20.3238 19.3673 20.8836 19.9288C21.4433 20.4903 22.2025 20.8058 22.9941 20.8058Z" fill="url(#paint0_linear_1994_34069)"/>
<defs>
<filter id="filter0_d_1994_34069" x="0.791451" y="0.63316" width="44.4171" height="44.4171" filterUnits="userSpaceOnUse" color-interpolation-filters="sRGB">
<feFlood flood-opacity="0" result="BackgroundImageFix"/>
<feColorMatrix in="SourceAlpha" type="matrix" values="0 0 0 0 0 0 0 0 0 0 0 0 0 0 0 0 0 0 127 0" result="hardAlpha"/>
<feOffset dy="0.84171"/>
<feGaussianBlur stdDeviation="2.10427"/>
<feComposite in2="hardAlpha" operator="out"/>
<feColorMatrix type="matrix" values="0 0 0 0 0 0 0 0 0 0 0 0 0 0 0 0 0 0 0.1 0"/>
<feBlend mode="normal" in2="BackgroundImageFix" result="effect1_dropShadow_1994_34069"/>
<feBlend mode="normal" in="SourceGraphic" in2="effect1_dropShadow_1994_34069" result="shape"/>
</filter>
<linearGradient id="paint0_linear_1994_34069" x1="22.9941" y1="10.968" x2="22.9941" y2="28.8469" gradientUnits="userSpaceOnUse">
<stop stop-color="#FE6731"/>
<stop offset="1" stop-color="#FE6731"/>
</linearGradient>
</defs>
</svg>
