<svg width="22" height="22" viewBox="0 0 22 22" fill="none" xmlns="http://www.w3.org/2000/svg">
<path fill-rule="evenodd" clip-rule="evenodd" d="M14.4294 16.1926C13.6712 17.0109 12.9154 17.6795 12.3501 18.1431C12.0387 18.3985 11.7218 18.6495 11.3915 18.879C11.1573 19.0408 10.8382 19.0401 10.6043 18.8781C10.2745 18.6488 9.95801 18.3982 9.64708 18.1431C9.08172 17.6795 8.32596 17.0109 7.56779 16.1926C6.08255 14.5895 4.45312 12.2682 4.45312 9.70406C4.45312 6.00151 7.38362 3 10.9986 3C14.6135 3 17.544 6.00151 17.544 9.70406C17.544 12.2682 15.9146 14.5895 14.4294 16.1926ZM10.9986 4.43643C8.15826 4.43643 5.85572 6.79476 5.85572 9.7039C5.85572 11.684 7.14838 13.6527 8.58521 15.2036C9.52919 16.2224 10.4812 17.0018 10.9986 17.3986C11.5159 17.0018 12.468 16.2224 13.4119 15.2036C14.8488 13.6527 16.1414 11.684 16.1414 9.7039C16.1414 6.79476 13.8389 4.43643 10.9986 4.43643Z" fill="#626262"/>
<path fill-rule="evenodd" clip-rule="evenodd" d="M10.9987 6.79098C9.4279 6.79098 8.15453 8.09521 8.15453 9.70406C8.15453 11.3129 9.4279 12.6171 10.9987 12.6171C12.5695 12.6171 13.8428 11.3129 13.8428 9.70406C13.8428 8.09521 12.5695 6.79098 10.9987 6.79098ZM9.55713 9.70406C9.55713 8.88861 10.2025 8.22757 10.9987 8.22757C11.7948 8.22757 12.4402 8.88861 12.4402 9.70406C12.4402 10.5195 11.7948 11.1805 10.9987 11.1805C10.2025 11.1805 9.55713 10.5195 9.55713 9.70406Z" fill="#626262"/>
</svg>
