<svg width="24" height="24" viewBox="0 0 24 24" fill="none" xmlns="http://www.w3.org/2000/svg">
<path d="M11.9652 17.1769H17.8547C18.0841 17.1897 18.3129 17.1436 18.5193 17.0429C18.7258 16.9423 18.9031 16.7904 19.0342 16.6018C19.1653 16.4132 19.2459 16.1941 19.2683 15.9655C19.2908 15.7369 19.2543 15.5064 19.1623 15.2959C18.851 14.3549 17.61 13.2263 17.61 12.1159C17.61 9.65108 17.61 9.00245 16.3957 7.55299C16.0028 7.08644 15.5156 6.7083 14.9662 6.44341L14.289 6.11477C14.1754 6.04619 14.0774 5.95459 14.0012 5.84586C13.9251 5.73713 13.8726 5.61368 13.8471 5.48344C13.7794 5.04446 13.5473 4.64766 13.1978 4.37351C12.8483 4.09936 12.4077 3.96839 11.9652 4.00717C11.5307 3.98108 11.1021 4.11789 10.7631 4.39087C10.4241 4.66385 10.199 5.0534 10.1317 5.48344C10.1013 5.61818 10.0415 5.74456 9.9568 5.85366C9.87206 5.96276 9.76438 6.0519 9.64138 6.11477L8.96422 6.44341C8.41508 6.70841 7.92819 7.08654 7.53551 7.55299C6.32215 9.00245 6.32215 9.65108 6.32215 12.1159C6.32215 13.2263 5.13733 14.2416 4.82599 15.2388C4.63832 15.8416 4.53454 17.1769 6.10594 17.1769H11.9652Z" stroke="#626262" stroke-width="2" stroke-linecap="round" stroke-linejoin="round"/>
<path d="M14.7882 17.1769C14.7956 17.5495 14.7277 17.9198 14.5885 18.2655C14.4493 18.6112 14.2417 18.9253 13.9782 19.1888C13.7147 19.4523 13.4006 19.6599 13.0549 19.7991C12.7092 19.9383 12.3389 20.0062 11.9663 19.9988C11.5935 20.0067 11.2231 19.9391 10.8772 19.8001C10.5313 19.6611 10.2171 19.4535 9.95354 19.1898C9.68997 18.9262 9.48248 18.6119 9.34356 18.266C9.20464 17.9201 9.13715 17.5496 9.14517 17.1769" stroke="#626262" stroke-width="2" stroke-linecap="round" stroke-linejoin="round"/>
</svg>
