<svg width="22" height="22" viewBox="0 0 22 22" fill="none" xmlns="http://www.w3.org/2000/svg">
<mask id="path-1-inside-1_393_17268" fill="white">
<path fill-rule="evenodd" clip-rule="evenodd" d="M13.4721 5.0425C13.2482 5.04941 13.0358 5.14322 12.8798 5.30407C12.7239 5.46491 12.6366 5.68015 12.6366 5.90419C12.6366 6.12823 12.7239 6.34347 12.8798 6.50431C13.0358 6.66516 13.2482 6.75897 13.4721 6.76589C13.9483 6.76589 14.3342 6.37917 14.3342 5.90378C14.334 5.67528 14.2431 5.45621 14.0814 5.29471C13.9198 5.13321 13.7006 5.0425 13.4721 5.0425ZM13.4721 8.40799C12.8083 8.40712 12.172 8.14298 11.7026 7.67351C11.2333 7.20405 10.9694 6.5676 10.9688 5.90378C10.9696 5.23996 11.2338 4.6036 11.7032 4.13429C12.1727 3.66497 12.8091 3.40104 13.473 3.40039C14.1368 3.40104 14.7732 3.66497 15.2427 4.13429C15.7122 4.6036 15.9763 5.23996 15.9772 5.90378C15.9765 6.56774 15.7125 7.20431 15.243 7.6738C14.7735 8.14329 14.1361 8.40734 13.4721 8.40799Z"/>
</mask>
<path d="M13.4721 5.0425L13.4721 2.98986H13.4405L13.4088 2.99084L13.4721 5.0425ZM12.6366 5.90419H10.584H12.6366ZM13.4721 6.76589L13.4088 8.81754L13.4405 8.81852H13.4721V6.76589ZM14.3342 5.90378H16.3869L16.3869 5.90182L14.3342 5.90378ZM13.4721 8.40799L13.4695 10.4606L13.4742 10.4606L13.4721 8.40799ZM10.9688 5.90378L8.91611 5.90109L8.91612 5.9058L10.9688 5.90378ZM13.473 3.40039L13.475 1.34776L13.4709 1.34776L13.473 3.40039ZM15.9772 5.90378L18.0298 5.9058L18.0298 5.90109L15.9772 5.90378ZM13.4721 5.0425L13.4088 2.99084C12.6517 3.01421 11.9334 3.3314 11.4062 3.87521L12.8798 5.30407L14.3535 6.73293C14.1381 6.95505 13.8447 7.0846 13.5355 7.09415L13.4721 5.0425ZM12.8798 5.30407L11.4062 3.87521C10.8789 4.41901 10.584 5.14672 10.584 5.90419H12.6366H14.6893C14.6893 6.21358 14.5688 6.51082 14.3535 6.73293L12.8798 5.30407ZM12.6366 5.90419H10.584C10.584 6.66166 10.8789 7.38937 11.4062 7.93317L12.8798 6.50431L14.3535 5.07545C14.5688 5.29756 14.6893 5.5948 14.6893 5.90419H12.6366ZM12.8798 6.50431L11.4062 7.93317C11.9334 8.47698 12.6517 8.79417 13.4088 8.81754L13.4721 6.76589L13.5355 4.71423C13.8447 4.72378 14.1381 4.85333 14.3535 5.07545L12.8798 6.50431ZM13.4721 6.76589V8.81852C15.0833 8.81852 16.3869 7.51153 16.3869 5.90378H14.3342H12.2816C12.2816 5.24681 12.8134 4.71325 13.4721 4.71325V6.76589ZM14.3342 5.90378L16.3869 5.90182C16.3861 5.12927 16.0787 4.38861 15.5322 3.84259L14.0814 5.29471L12.6307 6.74683C12.4075 6.52381 12.2819 6.22129 12.2816 5.90573L14.3342 5.90378ZM14.0814 5.29471L15.5322 3.84259C14.9856 3.29657 14.2447 2.98986 13.4721 2.98986L13.4721 5.0425L13.4721 7.09513C13.1566 7.09513 12.8539 6.96985 12.6307 6.74683L14.0814 5.29471ZM13.4721 8.40799L13.4748 6.35536C13.3546 6.3552 13.2393 6.30736 13.1543 6.22232L11.7026 7.67351L10.251 9.12471C11.1046 9.9786 12.2621 10.459 13.4695 10.4606L13.4721 8.40799ZM11.7026 7.67351L13.1543 6.22232C13.0693 6.13729 13.0215 6.02201 13.0214 5.90176L10.9688 5.90378L8.91612 5.9058C8.9173 7.11319 9.39736 8.27081 10.251 9.12471L11.7026 7.67351ZM10.9688 5.90378L13.0214 5.90647C13.0215 5.78623 13.0694 5.67096 13.1544 5.58595L11.7032 4.13429L10.252 2.68262C9.39814 3.53623 8.9177 4.6937 8.91612 5.90109L10.9688 5.90378ZM11.7032 4.13429L13.1544 5.58595C13.2395 5.50095 13.3547 5.45314 13.475 5.45302L13.473 3.40039L13.4709 1.34776C12.2636 1.34895 11.1059 1.829 10.252 2.68262L11.7032 4.13429ZM13.473 3.40039L13.4709 5.45302C13.5912 5.45314 13.7065 5.50095 13.7915 5.58595L15.2427 4.13429L16.6939 2.68262C15.84 1.829 14.6824 1.34895 13.475 1.34776L13.473 3.40039ZM15.2427 4.13429L13.7915 5.58595C13.8765 5.67096 13.9244 5.78623 13.9245 5.90647L15.9772 5.90378L18.0298 5.90109C18.0282 4.6937 17.5478 3.53623 16.6939 2.68262L15.2427 4.13429ZM15.9772 5.90378L13.9245 5.90176C13.9244 6.02203 13.8766 6.13733 13.7916 6.22237L15.243 7.6738L16.6944 9.12523C17.5484 8.2713 18.0286 7.11345 18.0298 5.9058L15.9772 5.90378ZM15.243 7.6738L13.7916 6.22237C13.707 6.30691 13.5911 6.35524 13.4701 6.35536L13.4721 8.40799L13.4742 10.4606C14.6811 10.4594 15.84 9.97968 16.6944 9.12523L15.243 7.6738Z" fill="#626262" mask="url(#path-1-inside-1_393_17268)"/>
<mask id="path-3-inside-2_393_17268" fill="white">
<path fill-rule="evenodd" clip-rule="evenodd" d="M18.1774 6.72609H15.1559C14.9382 6.72609 14.7293 6.63959 14.5753 6.48561C14.4214 6.33163 14.3349 6.12279 14.3349 5.90504C14.3349 5.68728 14.4214 5.47844 14.5753 5.32447C14.7293 5.17049 14.9382 5.08398 15.1559 5.08398H18.1774C18.3951 5.08398 18.604 5.17049 18.758 5.32447C18.9119 5.47844 18.9984 5.68728 18.9984 5.90504C18.9984 6.12279 18.9119 6.33163 18.758 6.48561C18.604 6.63959 18.3951 6.72609 18.1774 6.72609ZM11.7912 6.72609H4.21949C4.00173 6.72609 3.7929 6.63959 3.63892 6.48561C3.48494 6.33163 3.39844 6.12279 3.39844 5.90504C3.39844 5.68728 3.48494 5.47844 3.63892 5.32447C3.7929 5.17049 4.00173 5.08398 4.21949 5.08398H11.7912C12.009 5.08398 12.2178 5.17049 12.3718 5.32447C12.5258 5.47844 12.6123 5.68728 12.6123 5.90504C12.6123 6.12279 12.5258 6.33163 12.3718 6.48561C12.2178 6.63959 12.009 6.72609 11.7912 6.72609ZM18.1774 12.0219H4.21949C4.00173 12.0219 3.7929 11.9354 3.63892 11.7814C3.48494 11.6274 3.39844 11.4186 3.39844 11.2008C3.39844 10.9831 3.48494 10.7742 3.63892 10.6203C3.7929 10.4663 4.00173 10.3798 4.21949 10.3798H18.1774C18.3951 10.3798 18.604 10.4663 18.758 10.6203C18.9119 10.7742 18.9984 10.9831 18.9984 11.2008C18.9984 11.4186 18.9119 11.6274 18.758 11.7814C18.604 11.9354 18.3951 12.0219 18.1774 12.0219ZM7.24096 17.3177H4.21949C4.00173 17.3177 3.7929 17.2312 3.63892 17.0772C3.48494 16.9232 3.39844 16.7144 3.39844 16.4966C3.39844 16.2789 3.48494 16.07 3.63892 15.916C3.7929 15.7621 4.00173 15.6756 4.21949 15.6756H7.24096C7.45872 15.6756 7.66756 15.7621 7.82154 15.916C7.97551 16.07 8.06202 16.2789 8.06202 16.4966C8.06202 16.7144 7.97551 16.9232 7.82154 17.0772C7.66756 17.2312 7.45872 17.3177 7.24096 17.3177ZM18.1774 17.3177H10.6056C10.3879 17.3177 10.179 17.2312 10.0251 17.0772C9.87109 16.9232 9.78459 16.7144 9.78459 16.4966C9.78459 16.2789 9.87109 16.07 10.0251 15.916C10.179 15.7621 10.3879 15.6756 10.6056 15.6756H18.1774C18.3951 15.6756 18.604 15.7621 18.758 15.916C18.9119 16.07 18.9984 16.2789 18.9984 16.4966C18.9984 16.7144 18.9119 16.9232 18.758 17.0772C18.604 17.2312 18.3951 17.3177 18.1774 17.3177Z"/>
</mask>
<path d="M18.1774 6.72609V4.67346H15.1559V6.72609V8.77872H18.1774V6.72609ZM15.1559 6.72609V4.67346C15.4826 4.67346 15.7958 4.80322 16.0268 5.03418L14.5753 6.48561L13.1239 7.93704C13.6628 8.47596 14.3938 8.77872 15.1559 8.77872V6.72609ZM14.5753 6.48561L16.0268 5.03418C16.2577 5.26514 16.3875 5.5784 16.3875 5.90504H14.3349H12.2822C12.2822 6.66719 12.585 7.39812 13.1239 7.93704L14.5753 6.48561ZM14.3349 5.90504H16.3875C16.3875 6.23168 16.2577 6.54493 16.0268 6.7759L14.5753 5.32447L13.1239 3.87304C12.585 4.41195 12.2822 5.14288 12.2822 5.90504H14.3349ZM14.5753 5.32447L16.0268 6.7759C15.7958 7.00686 15.4826 7.13662 15.1559 7.13662V5.08398V3.03135C14.3938 3.03135 13.6628 3.33412 13.1239 3.87304L14.5753 5.32447ZM15.1559 5.08398V7.13662H18.1774V5.08398V3.03135H15.1559V5.08398ZM18.1774 5.08398V7.13662C17.8508 7.13662 17.5375 7.00686 17.3065 6.7759L18.758 5.32447L20.2094 3.87304C19.6705 3.33411 18.9395 3.03135 18.1774 3.03135V5.08398ZM18.758 5.32447L17.3065 6.7759C17.0756 6.54493 16.9458 6.23167 16.9458 5.90504H18.9984H21.0511C21.0511 5.14289 20.7483 4.41196 20.2094 3.87304L18.758 5.32447ZM18.9984 5.90504H16.9458C16.9458 5.57841 17.0756 5.26515 17.3065 5.03418L18.758 6.48561L20.2094 7.93704C20.7483 7.39812 21.0511 6.66718 21.0511 5.90504H18.9984ZM18.758 6.48561L17.3065 5.03418C17.5375 4.80321 17.8508 4.67346 18.1774 4.67346V6.72609V8.77872C18.9395 8.77872 19.6705 8.47596 20.2094 7.93704L18.758 6.48561ZM11.7912 6.72609V4.67346H4.21949V6.72609V8.77872H11.7912V6.72609ZM4.21949 6.72609V4.67346C4.54613 4.67346 4.85938 4.80321 5.09035 5.03418L3.63892 6.48561L2.18749 7.93704C2.72641 8.47596 3.45734 8.77872 4.21949 8.77872V6.72609ZM3.63892 6.48561L5.09035 5.03418C5.32131 5.26514 5.45107 5.5784 5.45107 5.90504H3.39844H1.34581C1.34581 6.66719 1.64857 7.39812 2.18749 7.93704L3.63892 6.48561ZM3.39844 5.90504H5.45107C5.45107 6.23167 5.32131 6.54493 5.09035 6.7759L3.63892 5.32447L2.18749 3.87304C1.64857 4.41195 1.34581 5.14289 1.34581 5.90504H3.39844ZM3.63892 5.32447L5.09035 6.7759C4.85938 7.00686 4.54613 7.13662 4.21949 7.13662V5.08398V3.03135C3.45734 3.03135 2.72641 3.33412 2.18749 3.87304L3.63892 5.32447ZM4.21949 5.08398V7.13662H11.7912V5.08398V3.03135H4.21949V5.08398ZM11.7912 5.08398V7.13662C11.4646 7.13662 11.1513 7.00686 10.9204 6.7759L12.3718 5.32447L13.8232 3.87304C13.2843 3.33411 12.5534 3.03135 11.7912 3.03135V5.08398ZM12.3718 5.32447L10.9204 6.7759C10.6894 6.54493 10.5597 6.23167 10.5597 5.90504H12.6123H14.6649C14.6649 5.14289 14.3622 4.41196 13.8232 3.87304L12.3718 5.32447ZM12.6123 5.90504H10.5597C10.5597 5.57841 10.6894 5.26515 10.9204 5.03418L12.3718 6.48561L13.8232 7.93704C14.3622 7.39812 14.6649 6.66718 14.6649 5.90504H12.6123ZM12.3718 6.48561L10.9204 5.03418C11.1513 4.80321 11.4646 4.67346 11.7912 4.67346V6.72609V8.77872C12.5534 8.77872 13.2843 8.47596 13.8232 7.93704L12.3718 6.48561ZM18.1774 12.0219V9.96925H4.21949V12.0219V14.0745H18.1774V12.0219ZM4.21949 12.0219V9.96925C4.54612 9.96925 4.85938 10.099 5.09035 10.33L3.63892 11.7814L2.18749 13.2328C2.72641 13.7718 3.45735 14.0745 4.21949 14.0745V12.0219ZM3.63892 11.7814L5.09035 10.33C5.32131 10.5609 5.45107 10.8742 5.45107 11.2008H3.39844H1.34581C1.34581 11.963 1.64857 12.6939 2.18749 13.2328L3.63892 11.7814ZM3.39844 11.2008H5.45107C5.45107 11.5275 5.32131 11.8407 5.09035 12.0717L3.63892 10.6203L2.18749 9.16882C1.64857 9.70775 1.34581 10.4387 1.34581 11.2008H3.39844ZM3.63892 10.6203L5.09035 12.0717C4.85938 12.3027 4.54612 12.4324 4.21949 12.4324V10.3798V8.32714C3.45735 8.32714 2.72641 8.6299 2.18749 9.16882L3.63892 10.6203ZM4.21949 10.3798V12.4324H18.1774V10.3798V8.32714H4.21949V10.3798ZM18.1774 10.3798V12.4324C17.8508 12.4324 17.5375 12.3027 17.3065 12.0717L18.758 10.6203L20.2094 9.16882C19.6705 8.6299 18.9395 8.32714 18.1774 8.32714V10.3798ZM18.758 10.6203L17.3065 12.0717C17.0756 11.8407 16.9458 11.5275 16.9458 11.2008H18.9984H21.0511C21.0511 10.4387 20.7483 9.70775 20.2094 9.16882L18.758 10.6203ZM18.9984 11.2008H16.9458C16.9458 10.8742 17.0756 10.5609 17.3065 10.33L18.758 11.7814L20.2094 13.2328C20.7483 12.6939 21.0511 11.963 21.0511 11.2008H18.9984ZM18.758 11.7814L17.3065 10.33C17.5375 10.099 17.8508 9.96925 18.1774 9.96925V12.0219V14.0745C18.9395 14.0745 19.6705 13.7718 20.2094 13.2328L18.758 11.7814ZM7.24096 17.3177V15.265H4.21949V17.3177V19.3703H7.24096V17.3177ZM4.21949 17.3177V15.265C4.54613 15.265 4.85939 15.3948 5.09035 15.6258L3.63892 17.0772L2.18749 18.5286C2.7264 19.0675 3.45734 19.3703 4.21949 19.3703V17.3177ZM3.63892 17.0772L5.09035 15.6258C5.32131 15.8567 5.45107 16.17 5.45107 16.4966H3.39844H1.34581C1.34581 17.2588 1.64857 17.9897 2.18749 18.5286L3.63892 17.0772ZM3.39844 16.4966H5.45107C5.45107 16.8233 5.32131 17.1365 5.09035 17.3675L3.63892 15.916L2.18749 14.4646C1.64857 15.0035 1.34581 15.7345 1.34581 16.4966H3.39844ZM3.63892 15.916L5.09035 17.3675C4.85938 17.5984 4.54612 17.7282 4.21949 17.7282V15.6756V13.6229C3.45735 13.6229 2.72641 13.9257 2.18749 14.4646L3.63892 15.916ZM4.21949 15.6756V17.7282H7.24096V15.6756V13.6229H4.21949V15.6756ZM7.24096 15.6756V17.7282C6.91433 17.7282 6.60107 17.5984 6.37011 17.3675L7.82154 15.916L9.27297 14.4646C8.73404 13.9257 8.00311 13.6229 7.24096 13.6229V15.6756ZM7.82154 15.916L6.37011 17.3675C6.13914 17.1365 6.00939 16.8233 6.00939 16.4966H8.06202H10.1146C10.1146 15.7345 9.81189 15.0035 9.27297 14.4646L7.82154 15.916ZM8.06202 16.4966H6.00939C6.00939 16.17 6.13914 15.8567 6.37011 15.6258L7.82154 17.0772L9.27297 18.5286C9.81188 17.9897 10.1146 17.2588 10.1146 16.4966H8.06202ZM7.82154 17.0772L6.37011 15.6258C6.60107 15.3948 6.91432 15.265 7.24096 15.265V17.3177V19.3703C8.00312 19.3703 8.73405 19.0675 9.27297 18.5286L7.82154 17.0772ZM18.1774 17.3177V15.265H10.6056V17.3177V19.3703H18.1774V17.3177ZM10.6056 17.3177V15.265C10.9323 15.265 11.2455 15.3948 11.4765 15.6258L10.0251 17.0772L8.57364 18.5286C9.11255 19.0675 9.84349 19.3703 10.6056 19.3703V17.3177ZM10.0251 17.0772L11.4765 15.6258C11.7075 15.8567 11.8372 16.17 11.8372 16.4966H9.78459H7.73195C7.73195 17.2588 8.03471 17.9897 8.57364 18.5286L10.0251 17.0772ZM9.78459 16.4966H11.8372C11.8372 16.8232 11.7075 17.1365 11.4765 17.3675L10.0251 15.916L8.57364 14.4646C8.03471 15.0035 7.73195 15.7345 7.73195 16.4966H9.78459ZM10.0251 15.916L11.4765 17.3675C11.2455 17.5984 10.9323 17.7282 10.6056 17.7282V15.6756V13.6229C9.8435 13.6229 9.11256 13.9257 8.57364 14.4646L10.0251 15.916ZM10.6056 15.6756V17.7282H18.1774V15.6756V13.6229H10.6056V15.6756ZM18.1774 15.6756V17.7282C17.8508 17.7282 17.5375 17.5984 17.3065 17.3675L18.758 15.916L20.2094 14.4646C19.6705 13.9257 18.9395 13.6229 18.1774 13.6229V15.6756ZM18.758 15.916L17.3065 17.3675C17.0756 17.1365 16.9458 16.8232 16.9458 16.4966H18.9984H21.0511C21.0511 15.7345 20.7483 15.0035 20.2094 14.4646L18.758 15.916ZM18.9984 16.4966H16.9458C16.9458 16.17 17.0756 15.8567 17.3065 15.6258L18.758 17.0772L20.2094 18.5286C20.7483 17.9897 21.0511 17.2588 21.0511 16.4966H18.9984ZM18.758 17.0772L17.3065 15.6258C17.5375 15.3948 17.8507 15.265 18.1774 15.265V17.3177V19.3703C18.9395 19.3703 19.6705 19.0675 20.2094 18.5286L18.758 17.0772Z" fill="#626262" mask="url(#path-3-inside-2_393_17268)"/>
<mask id="path-5-inside-3_393_17268" fill="white">
<path fill-rule="evenodd" clip-rule="evenodd" d="M8.92218 15.6343C8.44597 15.6343 8.06007 16.0218 8.06007 16.4964C8.06007 16.6669 8.11064 16.8336 8.20536 16.9754C8.30009 17.1171 8.43474 17.2276 8.59227 17.2929C8.74979 17.3581 8.92314 17.3752 9.09037 17.3419C9.2576 17.3087 9.41121 17.2266 9.53178 17.106C9.65235 16.9854 9.73446 16.8318 9.76772 16.6646C9.80098 16.4974 9.78391 16.324 9.71866 16.1665C9.65341 16.009 9.54291 15.8743 9.40114 15.7796C9.25937 15.6849 9.09269 15.6343 8.92218 15.6343ZM8.92218 19.0006C8.25822 19 7.62164 18.7359 7.15216 18.2664C6.68267 17.7969 6.41862 17.1604 6.41797 16.4964C6.41862 15.8324 6.68267 15.1959 7.15216 14.7264C7.62164 14.2569 8.25822 13.9928 8.92218 13.9922C9.58599 13.9931 10.2224 14.2572 10.6917 14.7267C11.161 15.1961 11.4249 15.8326 11.4256 16.4964C11.4249 17.1604 11.1609 17.7969 10.6914 18.2664C10.2219 18.7359 9.58614 19 8.92218 19.0006Z"/>
</mask>
<path d="M8.92218 19.0006L8.92016 21.0532L8.9242 21.0532L8.92218 19.0006ZM6.41797 16.4964L4.36533 16.4944L4.36534 16.4984L6.41797 16.4964ZM8.92218 13.9922L8.92487 11.9396L8.92016 11.9396L8.92218 13.9922ZM11.4256 16.4964L13.4782 16.4984L13.4782 16.4944L11.4256 16.4964ZM8.92218 15.6343V13.5817C7.30978 13.5817 6.00744 14.8907 6.00744 16.4964H8.06007H10.1127C10.1127 17.1529 9.58215 17.6869 8.92218 17.6869V15.6343ZM8.06007 16.4964H6.00744C6.00744 17.0729 6.17839 17.6364 6.49866 18.1157L8.20536 16.9754L9.91207 15.835C10.0429 16.0308 10.1127 16.2609 10.1127 16.4964H8.06007ZM8.20536 16.9754L6.49866 18.1157C6.81894 18.5951 7.27416 18.9687 7.80676 19.1893L8.59227 17.2929L9.37777 15.3965C9.59531 15.4866 9.78125 15.6392 9.91207 15.835L8.20536 16.9754ZM8.59227 17.2929L7.80676 19.1893C8.33935 19.4099 8.92541 19.4676 9.49082 19.3551L9.09037 17.3419L8.68992 15.3287C8.92086 15.2828 9.16024 15.3064 9.37777 15.3965L8.59227 17.2929ZM9.09037 17.3419L9.49082 19.3551C10.0562 19.2427 10.5756 18.9651 10.9832 18.5574L9.53178 17.106L8.08035 15.6546C8.24685 15.4881 8.45899 15.3747 8.68992 15.3287L9.09037 17.3419ZM9.53178 17.106L10.9832 18.5574C11.3908 18.1498 11.6684 17.6304 11.7809 17.065L9.76772 16.6646L7.75453 16.2641C7.80047 16.0332 7.91385 15.8211 8.08035 15.6546L9.53178 17.106ZM9.76772 16.6646L11.7809 17.065C11.8934 16.4996 11.8357 15.9136 11.615 15.381L9.71866 16.1665L7.82228 16.952C7.73217 16.7345 7.70859 16.4951 7.75453 16.2641L9.76772 16.6646ZM9.71866 16.1665L11.615 15.381C11.3944 14.8484 11.0208 14.3932 10.5415 14.0729L9.40114 15.7796L8.26076 17.4863C8.06498 17.3555 7.91239 17.1695 7.82228 16.952L9.71866 16.1665ZM9.40114 15.7796L10.5415 14.0729C10.0622 13.7526 9.49867 13.5817 8.92218 13.5817V15.6343V17.6869C8.68671 17.6869 8.45653 17.6171 8.26076 17.4863L9.40114 15.7796ZM8.92218 19.0006L8.9242 16.948C8.80393 16.9479 8.68863 16.9 8.60359 16.815L7.15216 18.2664L5.70073 19.7179C6.55466 20.5718 7.71251 21.0521 8.92016 21.0532L8.92218 19.0006ZM7.15216 18.2664L8.60359 16.815C8.51854 16.73 8.47072 16.6146 8.4706 16.4944L6.41797 16.4964L4.36534 16.4984C4.36652 17.7061 4.84679 18.8639 5.70073 19.7179L7.15216 18.2664ZM6.41797 16.4964L8.4706 16.4984C8.47072 16.3781 8.51855 16.2628 8.60359 16.1778L7.15216 14.7264L5.70073 13.2749C4.84679 14.1289 4.36652 15.2867 4.36534 16.4944L6.41797 16.4964ZM7.15216 14.7264L8.60359 16.1778C8.68863 16.0928 8.80393 16.0449 8.9242 16.0448L8.92218 13.9922L8.92016 11.9396C7.71251 11.9407 6.55466 12.421 5.70073 13.2749L7.15216 14.7264ZM8.92218 13.9922L8.91949 16.0448C9.03973 16.045 9.155 16.0928 9.24001 16.1779L10.6917 14.7267L12.1433 13.2755C11.2897 12.4216 10.1323 11.9411 8.92487 11.9396L8.92218 13.9922ZM10.6917 14.7267L9.24001 16.1779C9.32501 16.2629 9.37282 16.3782 9.37294 16.4984L11.4256 16.4964L13.4782 16.4944C13.477 15.287 12.997 14.1294 12.1433 13.2755L10.6917 14.7267ZM11.4256 16.4964L9.37294 16.4944C9.37282 16.6146 9.32499 16.73 9.23995 16.815L10.6914 18.2664L12.1428 19.7179C12.9968 18.8639 13.477 17.7061 13.4782 16.4984L11.4256 16.4964ZM10.6914 18.2664L9.23995 16.815C9.15441 16.9005 9.03971 16.9479 8.92016 16.948L8.92218 19.0006L8.9242 21.0532C10.1326 21.0521 11.2894 20.5713 12.1428 19.7179L10.6914 18.2664Z" fill="#626262" mask="url(#path-5-inside-3_393_17268)"/>
</svg>
