<svg width="22" height="22" viewBox="0 0 22 22" fill="none" xmlns="http://www.w3.org/2000/svg">
<path fill-rule="evenodd" clip-rule="evenodd" d="M9.4264 3.4834C6.14471 3.4834 3.48438 6.14374 3.48438 9.42545C3.48438 12.7071 6.14471 15.3675 9.4264 15.3675C10.8234 15.3675 12.1078 14.8854 13.1223 14.0785L16.8455 17.8017C17.1098 18.0661 17.5384 18.0661 17.8028 17.8017C18.0672 17.5374 18.0672 17.1088 17.8028 16.8444L14.0796 13.1212C14.8864 12.1067 15.3684 10.8224 15.3684 9.42545C15.3684 6.14374 12.7081 3.4834 9.4264 3.4834ZM4.83825 9.42545C4.83825 6.89147 6.89244 4.83728 9.4264 4.83728C11.9604 4.83728 14.0145 6.89147 14.0145 9.42545C14.0145 11.9594 11.9604 14.0136 9.4264 14.0136C6.89244 14.0136 4.83825 11.9594 4.83825 9.42545Z" fill="#626262"/>
</svg>
