<svg width="22" height="22" viewBox="0 0 22 22" fill="none" xmlns="http://www.w3.org/2000/svg">
<path d="M11.4102 3.01074C15.6369 3.22523 18.998 6.71996 18.998 11L18.9873 11.4121C18.7728 15.6389 15.2781 19 10.998 19L10.5859 18.9893C6.49578 18.7816 3.21635 15.5023 3.00879 11.4121L2.99805 11C2.99806 6.5818 6.57987 3.00011 10.998 3L11.4102 3.01074ZM11.7842 7.21484C11.784 7.64867 11.4319 8 10.998 8C10.5644 7.9998 10.213 7.64855 10.2129 7.21484V4.54883C7.251 4.90564 4.90463 7.25294 4.54785 10.2148H7.21191C7.64577 10.2148 7.99791 10.5662 7.99805 11C7.99805 11.4339 7.64585 11.7861 7.21191 11.7861H4.54785C4.905 14.7476 7.25136 17.0934 10.2129 17.4502V14.7861C10.2129 14.3523 10.5643 14.0002 10.998 14C11.432 14 11.7842 14.3522 11.7842 14.7861V17.4502C14.7455 17.0931 17.0921 14.7474 17.4492 11.7861H14.7842C14.3502 11.7861 13.998 11.4339 13.998 11C13.9982 10.5662 14.3503 10.2148 14.7842 10.2148H17.4492C17.0925 7.2531 14.7458 4.90588 11.7842 4.54883V7.21484ZM10.998 10.2148C11.4319 10.2148 11.784 10.5662 11.7842 11C11.7842 11.4339 11.432 11.7861 10.998 11.7861C10.5643 11.7859 10.2129 11.4338 10.2129 11C10.213 10.5663 10.5644 10.215 10.998 10.2148Z" fill="#626262"/>
</svg>
