<svg width="22" height="22" viewBox="0 0 22 22" fill="none" xmlns="http://www.w3.org/2000/svg">
<path d="M11.0879 19C6.76036 19 3.17578 15.4231 3.17578 11.0879C3.17578 6.76036 6.7527 3.17578 11.0802 3.17578C15.4154 3.17578 19 6.76036 19 11.0879C19 15.4231 15.4154 19 11.0879 19ZM11.0879 17.4452C14.6112 17.4452 17.4452 14.6112 17.4452 11.0879C17.4452 7.56459 14.6035 4.73829 11.0802 4.73829C7.55693 4.73829 4.73829 7.56459 4.73829 11.0879C4.73829 14.6112 7.56459 17.4452 11.0879 17.4452ZM8.17734 11.8155C7.71778 11.8155 7.38842 11.5475 7.38842 11.1032C7.38842 10.659 7.70246 10.3832 8.17734 10.3832H13.9908C14.4657 10.3832 14.772 10.659 14.772 11.1032C14.772 11.5475 14.4503 11.8155 13.9908 11.8155H8.17734Z" fill="#626262"/>
</svg>
