<svg width="22" height="22" viewBox="0 0 22 22" fill="none" xmlns="http://www.w3.org/2000/svg">
<path d="M11.0879 19C6.76036 19 3.17578 15.4231 3.17578 11.0879C3.17578 6.76036 6.7527 3.17578 11.0802 3.17578C15.4154 3.17578 19 6.76036 19 11.0879C19 15.4231 15.4154 19 11.0879 19ZM11.0879 17.4452C14.6112 17.4452 17.4452 14.6112 17.4452 11.0879C17.4452 7.56459 14.6035 4.73829 11.0802 4.73829C7.55693 4.73829 4.73829 7.56459 4.73829 11.0879C4.73829 14.6112 7.56459 17.4452 11.0879 17.4452ZM7.54161 11.0879C7.54161 10.659 7.84033 10.3603 8.26925 10.3603H10.3679V8.26159C10.3679 7.83267 10.659 7.54161 11.0726 7.54161C11.5015 7.54161 11.8002 7.83267 11.8002 8.26159V10.3603H13.9065C14.3278 10.3603 14.6189 10.659 14.6189 11.0879C14.6189 11.5015 14.3278 11.7926 13.9065 11.7926H11.8002V13.8989C11.8002 14.3201 11.5015 14.6189 11.0726 14.6189C10.659 14.6189 10.3679 14.3201 10.3679 13.8989V11.7926H8.26925C7.84033 11.7926 7.54161 11.5015 7.54161 11.0879Z" fill="#626262"/>
</svg>
