<svg width="22" height="22" viewBox="0 0 22 22" fill="none" xmlns="http://www.w3.org/2000/svg">
<path fill-rule="evenodd" clip-rule="evenodd" d="M14.669 16.5532C13.8582 17.4284 13.05 18.1433 12.4453 18.6392C12.1124 18.9123 11.7734 19.1808 11.4202 19.4262C11.1698 19.5992 10.8284 19.5985 10.5783 19.4252C10.2256 19.18 9.88717 18.9119 9.55465 18.6392C8.95003 18.1433 8.14179 17.4284 7.33096 16.5532C5.74258 14.8388 4 12.3563 4 9.61407C4 5.6544 7.13401 2.44446 11 2.44446C14.866 2.44446 18 5.6544 18 9.61407C18 12.3563 16.2574 14.8388 14.669 16.5532ZM11 3.98064C7.96244 3.98064 5.5 6.50274 5.5 9.61391C5.5 11.7316 6.88242 13.837 8.41904 15.4955C9.42856 16.5851 10.4467 17.4186 11 17.8429C11.5533 17.4186 12.5714 16.5851 13.581 15.4955C15.1176 13.837 16.5 11.7316 16.5 9.61391C16.5 6.50274 14.0376 3.98064 11 3.98064Z" fill="#3F3F3F"/>
<path fill-rule="evenodd" clip-rule="evenodd" d="M11.0001 6.49871C9.32025 6.49871 7.95845 7.8935 7.95845 9.61407C7.95845 11.3346 9.32025 12.7294 11.0001 12.7294C12.68 12.7294 14.0418 11.3346 14.0418 9.61407C14.0418 7.8935 12.68 6.49871 11.0001 6.49871ZM9.45845 9.61407C9.45845 8.742 10.1487 8.03505 11.0001 8.03505C11.8516 8.03505 12.5418 8.742 12.5418 9.61407C12.5418 10.4861 11.8516 11.1931 11.0001 11.1931C10.1487 11.1931 9.45845 10.4861 9.45845 9.61407Z" fill="#3F3F3F"/>
</svg>
