<svg width="20" height="20" viewBox="0 0 20 20" fill="none" xmlns="http://www.w3.org/2000/svg">
<mask id="path-1-inside-1_897_29767" fill="white">
<path fill-rule="evenodd" clip-rule="evenodd" d="M12.2485 4.58364C12.0449 4.58993 11.8518 4.67521 11.71 4.82144C11.5682 4.96766 11.4889 5.16333 11.4889 5.367C11.4889 5.57067 11.5682 5.76635 11.71 5.91257C11.8518 6.05879 12.0449 6.14408 12.2485 6.15036C12.6814 6.15036 13.0322 5.7988 13.0322 5.36663C13.032 5.1589 12.9493 4.95975 12.8024 4.81293C12.6554 4.66611 12.4562 4.58364 12.2485 4.58364ZM12.2485 7.64318C11.645 7.64239 11.0665 7.40227 10.6398 6.97548C10.2132 6.54869 9.97325 5.9701 9.97266 5.36663C9.97345 4.76316 10.2136 4.18465 10.6404 3.758C11.0671 3.33135 11.6457 3.09141 12.2492 3.09082C12.8527 3.09141 13.4313 3.33135 13.8581 3.758C14.2848 4.18465 14.525 4.76316 14.5258 5.36663C14.5252 5.97023 14.2851 6.54893 13.8583 6.97574C13.4315 7.40255 12.8521 7.64259 12.2485 7.64318Z"/>
</mask>
<path d="M12.2485 4.58364L12.2485 2.53101H12.2168L12.1851 2.53199L12.2485 4.58364ZM11.4889 5.367H9.43628H11.4889ZM12.2485 6.15036L12.1851 8.20202L12.2168 8.20299H12.2485V6.15036ZM13.0322 5.36663H15.0848L15.0848 5.36467L13.0322 5.36663ZM12.2485 7.64318L12.2458 9.69582L12.2505 9.69582L12.2485 7.64318ZM9.97266 5.36663L7.92002 5.36394L7.92003 5.36864L9.97266 5.36663ZM12.2492 3.09082L12.2512 1.03819L12.2472 1.03819L12.2492 3.09082ZM14.5258 5.36663L16.5784 5.36864L16.5784 5.36394L14.5258 5.36663ZM12.2485 4.58364L12.1851 2.53199C11.4484 2.55473 10.7494 2.86339 10.2363 3.39258L11.71 4.82144L13.1836 6.2503C12.9541 6.48704 12.6414 6.62512 12.3118 6.6353L12.2485 4.58364ZM11.71 4.82144L10.2363 3.39258C9.72323 3.92176 9.43628 4.6299 9.43628 5.367H11.4889H13.5415C13.5415 5.69676 13.4132 6.01356 13.1836 6.2503L11.71 4.82144ZM11.4889 5.367H9.43628C9.43628 6.10411 9.72323 6.81225 10.2363 7.34143L11.71 5.91257L13.1836 4.48371C13.4132 4.72044 13.5415 5.03724 13.5415 5.367H11.4889ZM11.71 5.91257L10.2363 7.34143C10.7494 7.87061 11.4484 8.17927 12.1851 8.20202L12.2485 6.15036L12.3118 4.09871C12.6414 4.10888 12.9541 4.24697 13.1836 4.48371L11.71 5.91257ZM12.2485 6.15036V8.20299C13.8163 8.20299 15.0848 6.93116 15.0848 5.36663H13.0322H10.9796C10.9796 4.66644 11.5465 4.09773 12.2485 4.09773V6.15036ZM13.0322 5.36663L15.0848 5.36467C15.0841 4.61289 14.785 3.89214 14.2531 3.36081L12.8024 4.81293L11.3516 6.26505C11.1137 6.02735 10.9799 5.70491 10.9796 5.36858L13.0322 5.36663ZM12.8024 4.81293L14.2531 3.36081C13.7213 2.82947 13.0002 2.53101 12.2485 2.53101L12.2485 4.58364L12.2485 6.63627C11.9121 6.63628 11.5896 6.50275 11.3516 6.26505L12.8024 4.81293ZM12.2485 7.64318L12.2512 5.59055C12.1913 5.59048 12.1338 5.56664 12.0915 5.52429L10.6398 6.97548L9.18817 8.42667C9.99912 9.23789 11.0987 9.69431 12.2458 9.69581L12.2485 7.64318ZM10.6398 6.97548L12.0915 5.52429C12.0492 5.48193 12.0253 5.42451 12.0253 5.36461L9.97266 5.36663L7.92003 5.36864C7.92115 6.51569 8.37721 7.61545 9.18817 8.42667L10.6398 6.97548ZM9.97266 5.36663L12.0253 5.36932C12.0254 5.30942 12.0492 5.25201 12.0916 5.20967L10.6404 3.758L9.18917 2.30633C8.37795 3.11728 7.92153 4.2169 7.92003 5.36394L9.97266 5.36663ZM10.6404 3.758L12.0916 5.20967C12.1339 5.16732 12.1913 5.14351 12.2512 5.14345L12.2492 3.09082L12.2472 1.03819C11.1001 1.03932 10.0004 1.49538 9.18917 2.30633L10.6404 3.758ZM12.2492 3.09082L12.2472 5.14345C12.3071 5.14351 12.3645 5.16732 12.4069 5.20967L13.8581 3.758L15.3093 2.30633C14.498 1.49538 13.3983 1.03932 12.2512 1.03819L12.2492 3.09082ZM13.8581 3.758L12.4069 5.20967C12.4492 5.25201 12.4731 5.30942 12.4731 5.36932L14.5258 5.36663L16.5784 5.36394C16.5769 4.2169 16.1205 3.11728 15.3093 2.30633L13.8581 3.758ZM14.5258 5.36663L12.4731 5.36461C12.4731 5.42452 12.4493 5.48195 12.4069 5.52431L13.8583 6.97574L15.3098 8.42717C16.121 7.61591 16.5773 6.51593 16.5784 5.36864L14.5258 5.36663ZM13.8583 6.97574L12.4069 5.52431C12.365 5.56617 12.3071 5.59049 12.2464 5.59055L12.2485 7.64318L12.2505 9.69582C13.3971 9.69469 14.498 9.23893 15.3098 8.42717L13.8583 6.97574Z" fill="#FF932F" mask="url(#path-1-inside-1_897_29767)"/>
<mask id="path-3-inside-2_897_29767" fill="white">
<path fill-rule="evenodd" clip-rule="evenodd" d="M16.5253 6.11379H13.7785C13.5805 6.11379 13.3906 6.03516 13.2507 5.89518C13.1107 5.7552 13.032 5.56534 13.032 5.36738C13.032 5.16942 13.1107 4.97957 13.2507 4.83959C13.3906 4.69961 13.5805 4.62097 13.7785 4.62097H16.5253C16.7232 4.62097 16.9131 4.69961 17.053 4.83959C17.193 4.97957 17.2717 5.16942 17.2717 5.36738C17.2717 5.56534 17.193 5.7552 17.053 5.89518C16.9131 6.03516 16.7232 6.11379 16.5253 6.11379ZM10.7197 6.11379H3.83626C3.63829 6.11379 3.44844 6.03516 3.30846 5.89518C3.16848 5.7552 3.08984 5.56534 3.08984 5.36738C3.08984 5.16942 3.16848 4.97957 3.30846 4.83959C3.44844 4.69961 3.63829 4.62097 3.83626 4.62097H10.7197C10.9176 4.62097 11.1075 4.69961 11.2475 4.83959C11.3874 4.97957 11.4661 5.16942 11.4661 5.36738C11.4661 5.56534 11.3874 5.7552 11.2475 5.89518C11.1075 6.03516 10.9176 6.11379 10.7197 6.11379ZM16.5253 10.9281H3.83626C3.63829 10.9281 3.44844 10.8495 3.30846 10.7095C3.16848 10.5696 3.08984 10.3797 3.08984 10.1817C3.08984 9.98378 3.16848 9.79392 3.30846 9.65394C3.44844 9.51397 3.63829 9.43533 3.83626 9.43533H16.5253C16.7232 9.43533 16.9131 9.51397 17.053 9.65394C17.193 9.79392 17.2717 9.98378 17.2717 10.1817C17.2717 10.3797 17.193 10.5696 17.053 10.7095C16.9131 10.8495 16.7232 10.9281 16.5253 10.9281ZM6.58305 15.7425H3.83626C3.63829 15.7425 3.44844 15.6639 3.30846 15.5239C3.16848 15.3839 3.08984 15.1941 3.08984 14.9961C3.08984 14.7981 3.16848 14.6083 3.30846 14.4683C3.44844 14.3283 3.63829 14.2497 3.83626 14.2497H6.58305C6.78101 14.2497 6.97086 14.3283 7.11084 14.4683C7.25082 14.6083 7.32946 14.7981 7.32946 14.9961C7.32946 15.1941 7.25082 15.3839 7.11084 15.5239C6.97086 15.6639 6.78101 15.7425 6.58305 15.7425ZM16.5253 15.7425H9.64184C9.44388 15.7425 9.25403 15.6639 9.11405 15.5239C8.97407 15.3839 8.89543 15.1941 8.89543 14.9961C8.89543 14.7981 8.97407 14.6083 9.11405 14.4683C9.25403 14.3283 9.44388 14.2497 9.64184 14.2497H16.5253C16.7232 14.2497 16.9131 14.3283 17.053 14.4683C17.193 14.6083 17.2717 14.7981 17.2717 14.9961C17.2717 15.1941 17.193 15.3839 17.053 15.5239C16.9131 15.6639 16.7232 15.7425 16.5253 15.7425Z"/>
</mask>
<path d="M16.5253 6.11379V4.06116H13.7785V6.11379V8.16643H16.5253V6.11379ZM13.7785 6.11379V4.06116C14.1249 4.06116 14.4571 4.19878 14.7021 4.44375L13.2507 5.89518L11.7992 7.34661C12.3242 7.87153 13.0361 8.16643 13.7785 8.16643V6.11379ZM13.2507 5.89518L14.7021 4.44375C14.9471 4.68871 15.0847 5.02095 15.0847 5.36738H13.032H10.9794C10.9794 6.10974 11.2743 6.82169 11.7992 7.34661L13.2507 5.89518ZM13.032 5.36738H15.0847C15.0847 5.71382 14.9471 6.04606 14.7021 6.29102L13.2507 4.83959L11.7992 3.38816C11.2743 3.91308 10.9794 4.62502 10.9794 5.36738H13.032ZM13.2507 4.83959L14.7021 6.29102C14.4571 6.53598 14.1249 6.6736 13.7785 6.6736V4.62097V2.56834C13.0361 2.56834 12.3242 2.86324 11.7992 3.38816L13.2507 4.83959ZM13.7785 4.62097V6.6736H16.5253V4.62097V2.56834H13.7785V4.62097ZM16.5253 4.62097V6.6736C16.1788 6.6736 15.8466 6.53598 15.6016 6.29102L17.053 4.83959L18.5045 3.38816C17.9796 2.86324 17.2676 2.56834 16.5253 2.56834V4.62097ZM17.053 4.83959L15.6016 6.29102C15.3566 6.04605 15.219 5.71381 15.219 5.36738H17.2717H19.3243C19.3243 4.62503 19.0294 3.91309 18.5045 3.38816L17.053 4.83959ZM17.2717 5.36738H15.219C15.219 5.02096 15.3566 4.68871 15.6016 4.44375L17.053 5.89518L18.5045 7.34661C19.0294 6.82168 19.3243 6.10973 19.3243 5.36738H17.2717ZM17.053 5.89518L15.6016 4.44375C15.8466 4.19878 16.1788 4.06116 16.5253 4.06116V6.11379V8.16643C17.2676 8.16643 17.9796 7.87153 18.5045 7.34661L17.053 5.89518ZM10.7197 6.11379V4.06116H3.83626V6.11379V8.16643H10.7197V6.11379ZM3.83626 6.11379V4.06116C4.18269 4.06116 4.51493 4.19878 4.75989 4.44375L3.30846 5.89518L1.85703 7.34661C2.38195 7.87153 3.0939 8.16643 3.83626 8.16643V6.11379ZM3.30846 5.89518L4.75989 4.44375C5.00486 4.68871 5.14248 5.02095 5.14248 5.36738H3.08984H1.03721C1.03721 6.10974 1.33211 6.82168 1.85703 7.34661L3.30846 5.89518ZM3.08984 5.36738H5.14248C5.14248 5.71382 5.00486 6.04606 4.75989 6.29102L3.30846 4.83959L1.85703 3.38816C1.33211 3.91308 1.03721 4.62503 1.03721 5.36738H3.08984ZM3.30846 4.83959L4.75989 6.29102C4.51493 6.53598 4.18269 6.6736 3.83626 6.6736V4.62097V2.56834C3.0939 2.56834 2.38195 2.86324 1.85703 3.38816L3.30846 4.83959ZM3.83626 4.62097V6.6736H10.7197V4.62097V2.56834H3.83626V4.62097ZM10.7197 4.62097V6.6736C10.3732 6.6736 10.041 6.53598 9.79603 6.29102L11.2475 4.83959L12.6989 3.38816C12.174 2.86324 11.462 2.56834 10.7197 2.56834V4.62097ZM11.2475 4.83959L9.79603 6.29102C9.55106 6.04605 9.41344 5.71381 9.41344 5.36738H11.4661H13.5187C13.5187 4.62503 13.2238 3.91309 12.6989 3.38816L11.2475 4.83959ZM11.4661 5.36738H9.41344C9.41344 5.02096 9.55106 4.68871 9.79603 4.44375L11.2475 5.89518L12.6989 7.34661C13.2238 6.82168 13.5187 6.10973 13.5187 5.36738H11.4661ZM11.2475 5.89518L9.79603 4.44375C10.041 4.19878 10.3732 4.06116 10.7197 4.06116V6.11379V8.16643C11.462 8.16643 12.174 7.87153 12.6989 7.34661L11.2475 5.89518ZM16.5253 10.9281V8.87552H3.83626V10.9281V12.9808H16.5253V10.9281ZM3.83626 10.9281V8.87552C4.18268 8.87552 4.51493 9.01313 4.75989 9.2581L3.30846 10.7095L1.85703 12.161C2.38196 12.6859 3.09391 12.9808 3.83626 12.9808V10.9281ZM3.30846 10.7095L4.75989 9.2581C5.00486 9.50307 5.14248 9.83531 5.14248 10.1817H3.08984H1.03721C1.03721 10.9241 1.33211 11.636 1.85703 12.161L3.30846 10.7095ZM3.08984 10.1817H5.14248C5.14248 10.5282 5.00486 10.8604 4.75989 11.1054L3.30846 9.65394L1.85703 8.20251C1.33211 8.72744 1.03721 9.43939 1.03721 10.1817H3.08984ZM3.30846 9.65394L4.75989 11.1054C4.51493 11.3503 4.18268 11.488 3.83626 11.488V9.43533V7.38269C3.09391 7.38269 2.38196 7.67759 1.85703 8.20251L3.30846 9.65394ZM3.83626 9.43533V11.488H16.5253V9.43533V7.38269H3.83626V9.43533ZM16.5253 9.43533V11.488C16.1788 11.488 15.8466 11.3503 15.6016 11.1054L17.053 9.65394L18.5045 8.20251C17.9795 7.67759 17.2676 7.38269 16.5253 7.38269V9.43533ZM17.053 9.65394L15.6016 11.1054C15.3566 10.8604 15.219 10.5282 15.219 10.1817H17.2717H19.3243C19.3243 9.43939 19.0294 8.72744 18.5045 8.20251L17.053 9.65394ZM17.2717 10.1817H15.219C15.219 9.83531 15.3566 9.50307 15.6016 9.2581L17.053 10.7095L18.5045 12.161C19.0294 11.636 19.3243 10.9241 19.3243 10.1817H17.2717ZM17.053 10.7095L15.6016 9.2581C15.8466 9.01313 16.1788 8.87552 16.5253 8.87552V10.9281V12.9808C17.2676 12.9808 17.9795 12.6859 18.5045 12.161L17.053 10.7095ZM6.58305 15.7425V13.6899H3.83626V15.7425V17.7951H6.58305V15.7425ZM3.83626 15.7425V13.6899C4.18269 13.6899 4.51493 13.8275 4.75989 14.0725L3.30846 15.5239L1.85703 16.9753C2.38195 17.5002 3.0939 17.7951 3.83626 17.7951V15.7425ZM3.30846 15.5239L4.75989 14.0725C5.00485 14.3174 5.14248 14.6497 5.14248 14.9961H3.08984H1.03721C1.03721 15.7384 1.33211 16.4504 1.85703 16.9753L3.30846 15.5239ZM3.08984 14.9961H5.14248C5.14248 15.3425 5.00486 15.6748 4.75989 15.9197L3.30846 14.4683L1.85703 13.0169C1.33211 13.5418 1.03721 14.2537 1.03721 14.9961H3.08984ZM3.30846 14.4683L4.75989 15.9197C4.51493 16.1647 4.18268 16.3023 3.83626 16.3023V14.2497V12.197C3.09391 12.197 2.38196 12.4919 1.85703 13.0169L3.30846 14.4683ZM3.83626 14.2497V16.3023H6.58305V14.2497V12.197H3.83626V14.2497ZM6.58305 14.2497V16.3023C6.23662 16.3023 5.90438 16.1647 5.65941 15.9197L7.11084 14.4683L8.56227 13.0169C8.03735 12.4919 7.3254 12.197 6.58305 12.197V14.2497ZM7.11084 14.4683L5.65941 15.9197C5.41445 15.6748 5.27683 15.3425 5.27683 14.9961H7.32946H9.38209C9.38209 14.2537 9.08719 13.5418 8.56227 13.0169L7.11084 14.4683ZM7.32946 14.9961H5.27683C5.27683 14.6497 5.41445 14.3174 5.65941 14.0725L7.11084 15.5239L8.56227 16.9753C9.08719 16.4504 9.38209 15.7384 9.38209 14.9961H7.32946ZM7.11084 15.5239L5.65941 14.0725C5.90437 13.8275 6.23661 13.6899 6.58305 13.6899V15.7425V17.7951C7.32541 17.7951 8.03735 17.5002 8.56227 16.9753L7.11084 15.5239ZM16.5253 15.7425V13.6899H9.64184V15.7425V17.7951H16.5253V15.7425ZM9.64184 15.7425V13.6899C9.98828 13.6899 10.3205 13.8275 10.5655 14.0725L9.11405 15.5239L7.66262 16.9753C8.18754 17.5002 8.89949 17.7951 9.64184 17.7951V15.7425ZM9.11405 15.5239L10.5655 14.0725C10.8104 14.3174 10.9481 14.6497 10.9481 14.9961H8.89543H6.8428C6.8428 15.7384 7.1377 16.4504 7.66262 16.9753L9.11405 15.5239ZM8.89543 14.9961H10.9481C10.9481 15.3425 10.8104 15.6748 10.5655 15.9197L9.11405 14.4683L7.66262 13.0169C7.13769 13.5418 6.8428 14.2537 6.8428 14.9961H8.89543ZM9.11405 14.4683L10.5655 15.9197C10.3205 16.1647 9.98827 16.3023 9.64184 16.3023V14.2497V12.197C8.8995 12.197 8.18755 12.4919 7.66262 13.0169L9.11405 14.4683ZM9.64184 14.2497V16.3023H16.5253V14.2497V12.197H9.64184V14.2497ZM16.5253 14.2497V16.3023C16.1788 16.3023 15.8466 16.1647 15.6016 15.9197L17.053 14.4683L18.5045 13.0169C17.9795 12.4919 17.2676 12.197 16.5253 12.197V14.2497ZM17.053 14.4683L15.6016 15.9197C15.3566 15.6748 15.219 15.3425 15.219 14.9961H17.2717H19.3243C19.3243 14.2537 19.0294 13.5418 18.5045 13.0169L17.053 14.4683ZM17.2717 14.9961H15.219C15.219 14.6497 15.3566 14.3174 15.6016 14.0725L17.053 15.5239L18.5045 16.9753C19.0294 16.4504 19.3243 15.7384 19.3243 14.9961H17.2717ZM17.053 15.5239L15.6016 14.0725C15.8466 13.8275 16.1788 13.6899 16.5253 13.6899V15.7425V17.7951C17.2676 17.7951 17.9796 17.5002 18.5045 16.9753L17.053 15.5239Z" fill="#FF932F" mask="url(#path-3-inside-2_897_29767)"/>
<mask id="path-5-inside-3_897_29767" fill="white">
<path fill-rule="evenodd" clip-rule="evenodd" d="M8.11249 14.2125C7.67957 14.2125 7.32876 14.5649 7.32876 14.9963C7.32876 15.1513 7.37473 15.3028 7.46084 15.4317C7.54696 15.5606 7.66936 15.661 7.81257 15.7204C7.95578 15.7797 8.11336 15.7952 8.26539 15.765C8.41742 15.7347 8.55707 15.6601 8.66667 15.5505C8.77628 15.4409 8.85093 15.3012 8.88117 15.1492C8.91141 14.9972 8.89589 14.8396 8.83657 14.6964C8.77725 14.5532 8.6768 14.4308 8.54791 14.3446C8.41903 14.2585 8.2675 14.2125 8.11249 14.2125ZM8.11249 17.2728C7.50889 17.2722 6.93019 17.0322 6.50338 16.6054C6.07657 16.1786 5.83653 15.5999 5.83594 14.9963C5.83653 14.3927 6.07657 13.814 6.50338 13.3872C6.93019 12.9604 7.50889 12.7203 8.11249 12.7197C8.71596 12.7205 9.29448 12.9606 9.72112 13.3874C10.1478 13.8142 10.3877 14.3928 10.3883 14.9963C10.3877 15.5999 10.1477 16.1786 9.72086 16.6054C9.29405 17.0322 8.71609 17.2722 8.11249 17.2728Z"/>
</mask>
<path d="M8.11249 17.2728L8.11048 19.3255L8.11451 19.3255L8.11249 17.2728ZM5.83594 14.9963L3.7833 14.9943L3.78331 14.9983L5.83594 14.9963ZM8.11249 12.7197L8.11518 10.6671L8.11048 10.6671L8.11249 12.7197ZM10.3883 14.9963L12.4409 14.9983L12.4409 14.9943L10.3883 14.9963ZM8.11249 14.2125V12.1599C6.54339 12.1599 5.27613 13.4338 5.27613 14.9963H7.32876H9.38139C9.38139 15.6959 8.81576 16.2652 8.11249 16.2652V14.2125ZM7.32876 14.9963H5.27613C5.27613 15.5573 5.44248 16.1056 5.75414 16.5721L7.46084 15.4317L9.16754 14.2913C9.30697 14.5 9.38139 14.7453 9.38139 14.9963H7.32876ZM7.46084 15.4317L5.75414 16.5721C6.06581 17.0385 6.50879 17.4021 7.02706 17.6167L7.81257 15.7204L8.59808 13.824C8.82994 13.92 9.02811 14.0826 9.16754 14.2913L7.46084 15.4317ZM7.81257 15.7204L7.02706 17.6167C7.54534 17.8314 8.11564 17.8876 8.66584 17.7781L8.26539 15.765L7.86494 13.7518C8.11109 13.7028 8.36622 13.7279 8.59808 13.824L7.81257 15.7204ZM8.26539 15.765L8.66584 17.7781C9.21603 17.6687 9.72143 17.3986 10.1181 17.0019L8.66667 15.5505L7.21524 14.099C7.39271 13.9216 7.61881 13.8007 7.86494 13.7518L8.26539 15.765ZM8.66667 15.5505L10.1181 17.0019C10.5148 16.6052 10.7849 16.0998 10.8944 15.5496L8.88117 15.1492L6.86797 14.7487C6.91694 14.5026 7.03779 14.2765 7.21524 14.099L8.66667 15.5505ZM8.88117 15.1492L10.8944 15.5496C11.0038 14.9994 10.9476 14.4291 10.733 13.9109L8.83657 14.6964L6.94018 15.4819C6.84414 15.25 6.81901 14.9949 6.86797 14.7487L8.88117 15.1492ZM8.83657 14.6964L10.733 13.9109C10.5183 13.3926 10.1547 12.9496 9.68829 12.6379L8.54791 14.3446L7.40753 16.0513C7.19887 15.9119 7.03622 15.7137 6.94018 15.4819L8.83657 14.6964ZM8.54791 14.3446L9.68829 12.6379C9.22186 12.3263 8.67348 12.1599 8.11249 12.1599V14.2125V16.2652C7.86152 16.2652 7.61619 16.1908 7.40753 16.0513L8.54791 14.3446ZM8.11249 17.2728L8.11451 15.2202C8.0546 15.2201 7.99717 15.1963 7.95481 15.154L6.50338 16.6054L5.05195 18.0568C5.86321 18.8681 6.96319 19.3243 8.11048 19.3255L8.11249 17.2728ZM6.50338 16.6054L7.95481 15.154C7.91245 15.1116 7.88863 15.0542 7.88857 14.9943L5.83594 14.9963L3.78331 14.9983C3.78443 16.1456 4.24069 17.2456 5.05195 18.0568L6.50338 16.6054ZM5.83594 14.9963L7.88857 14.9983C7.88863 14.9384 7.91245 14.881 7.95481 14.8386L6.50338 13.3872L5.05195 11.9357C4.24069 12.747 3.78443 13.847 3.78331 14.9943L5.83594 14.9963ZM6.50338 13.3872L7.95481 14.8386C7.99717 14.7962 8.0546 14.7724 8.11451 14.7724L8.11249 12.7197L8.11048 10.6671C6.96319 10.6682 5.86321 11.1245 5.05195 11.9357L6.50338 13.3872ZM8.11249 12.7197L8.1098 14.7724C8.1697 14.7724 8.22711 14.7963 8.26946 14.8386L9.72112 13.3874L11.1728 11.9362C10.3618 11.125 9.26222 10.6686 8.11518 10.6671L8.11249 12.7197ZM9.72112 13.3874L8.26946 14.8386C8.3118 14.881 8.33561 14.9384 8.33567 14.9983L10.3883 14.9963L12.4409 14.9943C12.4398 13.8472 11.9837 12.7475 11.1728 11.9362L9.72112 13.3874ZM10.3883 14.9963L8.33567 14.9943C8.33561 15.0542 8.31179 15.1116 8.26943 15.154L9.72086 16.6054L11.1723 18.0568C11.9835 17.2456 12.4398 16.1456 12.4409 14.9983L10.3883 14.9963ZM9.72086 16.6054L8.26943 15.154C8.22656 15.1968 8.16967 15.2201 8.11048 15.2202L8.11249 17.2728L8.11451 19.3255C9.26251 19.3243 10.3615 18.8676 11.1723 18.0568L9.72086 16.6054Z" fill="#FF932F" mask="url(#path-5-inside-3_897_29767)"/>
</svg>
