<svg width="166" height="166" viewBox="0 0 166 166" fill="none" xmlns="http://www.w3.org/2000/svg">
    <path d="M92.0253 117.689L131.33 107.158C132.884 106.833 134.328 106.116 135.526 105.075C136.724 104.034 137.635 102.704 138.173 101.21C138.711 99.7173 138.857 98.1113 138.598 96.5455C138.339 94.9797 137.683 93.5064 136.693 92.266C132.933 86.5432 122.632 81.2305 120.646 73.8197C116.239 57.3706 115.079 53.0419 104.384 45.54C100.927 43.129 96.9997 41.4766 92.8592 40.6913L87.7523 39.709C86.8714 39.4545 86.0534 39.0185 85.3511 38.429C84.6487 37.8395 84.0775 37.1095 83.6741 36.286C82.4374 33.4774 80.1787 31.2443 77.3562 30.0397C74.5338 28.835 71.3587 28.749 68.4752 29.7991C65.5289 30.4019 62.9132 32.0813 61.1387 34.5093C59.3643 36.9374 58.5587 39.9396 58.8792 42.9298C58.9167 43.8835 58.7441 44.8337 58.3737 45.7133C58.0033 46.5929 57.4441 47.3804 56.7356 48.0199L52.8041 51.4241C49.6132 54.1745 47.0401 57.5687 45.2536 61.3839C39.748 73.2268 40.9078 77.5555 45.3153 94.0046C47.3011 101.415 41.2095 110.31 40.9149 117.521C40.7403 121.88 42.4355 130.977 52.9226 128.167L92.0253 117.689Z" stroke="#EAEAEA" stroke-width="10" stroke-linecap="round" stroke-linejoin="round"/>
    <path d="M110.863 112.641C111.579 115.115 111.788 117.707 111.477 120.263C111.166 122.82 110.343 125.287 109.055 127.517C107.768 129.747 106.043 131.694 103.985 133.241C101.926 134.788 99.5767 135.903 97.0767 136.52C94.6035 137.24 92.0103 137.451 89.4533 137.142C86.8963 136.832 84.4283 136.009 82.1979 134.721C79.9675 133.432 78.0208 131.706 76.4751 129.646C74.9293 127.586 73.8165 125.234 73.2035 122.732" stroke="#EAEAEA" stroke-width="10" stroke-linecap="round" stroke-linejoin="round"/>
</svg>
